<?xml version="1.0" encoding="iso-8859-1"?>
<!-- Generator: Adobe Illustrator 23.0.1, SVG Export Plug-In . SVG Version: 6.00 Build 0)  -->
<svg version="1.1" id="Layer_1" xmlns="http://www.w3.org/2000/svg" xmlns:xlink="http://www.w3.org/1999/xlink" x="0px" y="0px"
	 viewBox="0 0 90 90" style="enable-background:new 0 0 90 90;" xml:space="preserve">
<style type="text/css">
	.st0{enable-background:new    ;}
	.st1{fill:#FF2B06;}
</style>
<g class="st0">
	<path d="M0.1,89.6V77.9h2.4L5.7,87L9,77.9h2.1v11.7H9.6v-9.5l-3.2,8.7H4.8l-3.2-8.8v9.6L0.1,89.6L0.1,89.6z"/>
	<path d="M24.3,89.6V77.9h6.5v1.2h-4.9v3.8H30v1.2h-4.1v4.2h5.2v1.2H24.3z"/>
	<path d="M43.2,89.6V77.9h3.9c1.2,0,2.1,0.1,2.8,0.4s1.3,0.7,1.8,1.3c0.8,1,1.2,2.3,1.2,3.9c0,1.9-0.5,3.5-1.5,4.5
		c-1,1.1-2.5,1.6-4.3,1.6L43.2,89.6L43.2,89.6z M44.9,88.4H47c1.5,0,2.6-0.4,3.2-1.2c0.7-0.9,1-2,1-3.5c0-1.4-0.3-2.5-1-3.2
		c-0.4-0.5-0.9-0.8-1.5-1s-1.4-0.3-2.5-0.3h-1.4L44.9,88.4L44.9,88.4z"/>
	<path d="M65.5,89.6V77.9h1.7v11.7H65.5z"/>
	<path d="M88,89.6l-1.3-3.2h-4.9l-1.3,3.2h-1.5l4.6-11.7h1.6l4.6,11.7H88z M86.2,85.1l-2-5.1l-2,5.1H86.2z"/>
</g>
<path class="st1" d="M74.6,41.3c-0.4,1.2-0.6,2.9-0.6,5.2c0,2.6,0.2,4.2,0.5,5c0.3,0.8,1,1.1,2,1.1c0.9,0,1.6-0.3,1.8-0.9
	c0.3-0.6,0.4-2.1,0.4-4.6V36.8C76.3,38.6,74.9,40.1,74.6,41.3 M79.2,56c-0.9,1.8-2.1,3.1-3.6,4c-0.1,0.1-0.2,0.1-0.3,0.1h3.9V56
	L79.2,56z M35.2,39.4h6.7V13.6L35.2,39.4z M24.2,0v38.3L36.9,0H24.2z M41.9,49.8H24.2v10.4h17.6V49.8L41.9,49.8z M0,16.6v43.5h9.1
	V27.9c0-4.7-0.1-7.5-0.3-8.5c-0.2-1-0.8-1.7-1.8-2.1s-3.3-0.7-6.8-0.7L0,16.6L0,16.6z M15.1,0H0v9.1C6.6,7.5,11.6,4.5,15.1,0
	 M59.8,49.8H57v10.4h7.9c-0.6-0.3-1.2-0.6-1.8-1C61,57.7,59.9,54.5,59.8,49.8 M60.6,39.4c0.3-0.7,0.6-1.3,0.9-1.8
	c1.2-1.3,4.1-2.9,8.7-4.7c5-2,7.6-3.3,8-3.9c0.3-0.7,0.5-2,0.5-4.1c0-2.6-0.2-4.3-0.6-5.1c-0.4-0.8-1-1.2-1.9-1.2
	c-1,0-1.7,0.3-1.9,1S74,22,74,24.8V30H59.8v-3.3c0-3.8,0.4-6.8,1.3-8.9c0.9-2.1,2.7-3.9,5.3-5.5c2.7-1.6,6.1-2.4,10.4-2.4
	c5.1,0,9,0.9,11.6,2.7c0.5,0.4,0.9,0.7,1.3,1.1V0H57v39.4H60.6"/>
</svg>
