<svg xmlns="http://www.w3.org/2000/svg" id="Ebene_1" data-name="Ebene 1" viewBox="0 0 267 35"><defs><style>      .cls-1 {        fill: #f8af02;      }      .cls-2 {        fill: #fff;      }    </style></defs><title>creanovo_menu_1</title><g><path class="cls-1" d="M0,17.53a20.15,20.15,0,0,1,1.17-6.92A16.43,16.43,0,0,1,4.54,5a15.28,15.28,0,0,1,5.31-3.7A17.83,17.83,0,0,1,16.9,0,24.26,24.26,0,0,1,26,1.72L24.34,8a18,18,0,0,0-3.1-.95,16.71,16.71,0,0,0-3.69-.39q-4.63,0-7,2.84t-2.42,8a12.38,12.38,0,0,0,2.29,7.88c1.52,1.93,4.08,2.9,7.7,2.9a20.42,20.42,0,0,0,4-.39,19,19,0,0,0,3.39-1l1.11,6.37a16.51,16.51,0,0,1-3.95,1.15,28.7,28.7,0,0,1-5.45.51,20.22,20.22,0,0,1-7.6-1.31,14.42,14.42,0,0,1-5.35-3.63,14.77,14.77,0,0,1-3.16-5.55A22.35,22.35,0,0,1,0,17.53Z"></path><path class="cls-1" d="M52.14,7.78a26,26,0,0,0-2.71-.67,20.74,20.74,0,0,0-4-.35,19.37,19.37,0,0,0-4.82.7V34.17h-7.9V2.42A44.91,44.91,0,0,1,38.4.86,36.31,36.31,0,0,1,46,.13q.78,0,1.83.09c.69.07,1.39.15,2.09.26s1.37.23,2,.38,1.18.29,1.57.42Z"></path><path class="cls-1" d="M57.09,17.66A20.54,20.54,0,0,1,58.43,10,16.18,16.18,0,0,1,62,4.43a14.73,14.73,0,0,1,5.09-3.31A15.94,15.94,0,0,1,73,0q7,0,11,4.27t4,12.75q0,.64,0,1.44c0,.53,0,1-.1,1.43H65.25a8.72,8.72,0,0,0,2.9,6.22c1.72,1.46,4.21,2.2,7.48,2.2a25.14,25.14,0,0,0,5.25-.51,22,22,0,0,0,3.75-1.09l1,6.31a11.3,11.3,0,0,1-1.79.67,23.79,23.79,0,0,1-2.61.64c-1,.19-2,.35-3.17.48a30.17,30.17,0,0,1-3.45.19,21.36,21.36,0,0,1-7.83-1.31,14.53,14.53,0,0,1-5.48-3.63,14.68,14.68,0,0,1-3.2-5.48A21.83,21.83,0,0,1,57.09,17.66ZM80,14.22a10,10,0,0,0-.46-3A7.11,7.11,0,0,0,78.2,8.7,6.31,6.31,0,0,0,76.05,7,7.37,7.37,0,0,0,67.5,8.86,8,8,0,0,0,66,11.35a13,13,0,0,0-.71,2.87Z"></path><path class="cls-1" d="M107.6,0a19.64,19.64,0,0,1,6.59,1,10.51,10.51,0,0,1,4.27,2.67,10,10,0,0,1,2.29,4.18,20.29,20.29,0,0,1,.68,5.39V33.41c-1.22.25-3.05.56-5.51.92a57.83,57.83,0,0,1-8.32.54A25.61,25.61,0,0,1,102,34.3a11.83,11.83,0,0,1-4.34-1.85,8.79,8.79,0,0,1-2.81-3.31,11.34,11.34,0,0,1-1-5A9.59,9.59,0,0,1,95,19.25,9.36,9.36,0,0,1,98.07,16a13.81,13.81,0,0,1,4.54-1.78,26.18,26.18,0,0,1,5.38-.54,25.33,25.33,0,0,1,5.81.7V13.13a9.69,9.69,0,0,0-.33-2.55,5.3,5.3,0,0,0-1.14-2.13A5.36,5.36,0,0,0,110.18,7a9.54,9.54,0,0,0-3.36-.51,30,30,0,0,0-5,.39,22.19,22.19,0,0,0-3.72.89l-1-6.25a31.63,31.63,0,0,1,4.38-1A35,35,0,0,1,107.6,0Zm.65,28.75a30.63,30.63,0,0,0,5.55-.38V19.83a15.66,15.66,0,0,0-1.9-.39,19,19,0,0,0-2.74-.19,19.77,19.77,0,0,0-2.64.19,8.47,8.47,0,0,0-2.41.71,4.35,4.35,0,0,0-1.73,1.43,3.91,3.91,0,0,0-.65,2.33c0,1.82.58,3.09,1.76,3.79A9.25,9.25,0,0,0,108.25,28.75Z"></path><path class="cls-2" d="M131.68,2.36q1.89-.51,5.09-1.15A41.18,41.18,0,0,1,144.6.57,16.64,16.64,0,0,1,151,1.66a9.88,9.88,0,0,1,4.12,3.09,12.42,12.42,0,0,1,2.18,4.81,27,27,0,0,1,.65,6.19V34.17h-4.24V17.09a30.18,30.18,0,0,0-.49-5.93,9.7,9.7,0,0,0-1.63-4,6.34,6.34,0,0,0-3-2.2,14.12,14.12,0,0,0-4.67-.67,36.69,36.69,0,0,0-5.18.32,16.62,16.62,0,0,0-2.84.58V34.17h-4.24Z"></path><path class="cls-2" d="M197.58,17.72a20.91,20.91,0,0,1-1.14,7.08,15.67,15.67,0,0,1-3.2,5.42,14.52,14.52,0,0,1-4.86,3.47,16,16,0,0,1-12.4,0,14.52,14.52,0,0,1-4.86-3.47,15.67,15.67,0,0,1-3.2-5.42,20.91,20.91,0,0,1-1.14-7.08,20.85,20.85,0,0,1,1.14-7.07,15.9,15.9,0,0,1,3.2-5.45A14.35,14.35,0,0,1,176,1.69a16.12,16.12,0,0,1,12.4,0,14.35,14.35,0,0,1,4.86,3.51,15.9,15.9,0,0,1,3.2,5.45A20.85,20.85,0,0,1,197.58,17.72Zm-4.5,0q0-6.18-2.94-9.85a10.49,10.49,0,0,0-15.92,0q-2.94,3.68-2.94,9.85t2.94,9.82a10.52,10.52,0,0,0,15.92,0Q193.08,23.91,193.08,17.72Z"></path><path class="cls-2" d="M217,29.71c.92-1.83,1.85-3.92,2.81-6.28s1.89-4.8,2.79-7.33,1.72-5.08,2.48-7.65,1.41-5,1.94-7.24h4.24c-.79,3-1.67,6-2.63,8.93s-2,5.8-3.05,8.6-2.19,5.51-3.35,8.1-2.29,5-3.38,7.33h-4c-1.13-2.29-2.27-4.74-3.41-7.33s-2.25-5.29-3.32-8.1-2.09-5.67-3.05-8.6-1.84-5.91-2.63-8.93H207q.79,3.39,1.93,7.24t2.49,7.65q1.35,3.79,2.79,7.33C215.14,25.79,216.07,27.88,217,29.71Z"></path><path class="cls-2" d="M266.88,17.72a20.9,20.9,0,0,1-1.15,7.08,15.52,15.52,0,0,1-3.2,5.42,14.42,14.42,0,0,1-4.86,3.47,16,16,0,0,1-12.39,0,14.42,14.42,0,0,1-4.86-3.47,15.52,15.52,0,0,1-3.2-5.42,20.91,20.91,0,0,1-1.14-7.08,20.85,20.85,0,0,1,1.14-7.07,15.75,15.75,0,0,1,3.2-5.45,14.26,14.26,0,0,1,4.86-3.51,16.1,16.1,0,0,1,12.39,0,14.26,14.26,0,0,1,4.86,3.51,15.75,15.75,0,0,1,3.2,5.45A20.84,20.84,0,0,1,266.88,17.72Zm-4.51,0q0-6.18-2.93-9.85a10.5,10.5,0,0,0-15.93,0q-2.92,3.68-2.93,9.85t2.93,9.82a10.53,10.53,0,0,0,15.93,0Q262.37,23.91,262.37,17.72Z"></path></g></svg>