<?xml version="1.0" encoding="utf-8"?>
<!-- Generator: Adobe Illustrator 25.4.1, SVG Export Plug-In . SVG Version: 6.00 Build 0)  -->
<svg version="1.1" id="Ebene_1" xmlns="http://www.w3.org/2000/svg" xmlns:xlink="http://www.w3.org/1999/xlink" x="0px" y="0px"
	 viewBox="0 0 455 227.5" style="enable-background:new 0 0 455 227.5;" xml:space="preserve">
<style type="text/css">
	.st0{fill:#FFFFFF;}
	.st1{fill:#AFCA0B;}
	.st2{fill:none;}
	.st3{fill:#878787;}
</style>
<path class="st0" d="M96,192.1c-0.3-0.7-0.2-1.5,0.4-2c0.6-0.5,1.5-0.6,2.5,0.5c-0.7-0.7-1.2-1.4-1.6-2.3c-0.2-1-0.3-1.9-0.1-2.9
	c1.3,1.4,2.5-0.6,3.3-1.9c-0.9,0-1.8,0.3-2.6,0.8c-0.8,0.5-1.8,1.2-2.8,1.9c0.2,0.5,0.2,0.9,0.1,1.4c0,0.3-0.2,0.6-0.4,0.8
	c-0.2,0.2-0.3,0.2-0.4,0.2l0,0c0,0,0-0.1,0,0l0.2,0.4l0.7,1.4c0.4,0.8,0.7,1.6,1,2.4c0.1,0.3,0.3,0.7,0.4,1c0,0.2,0.1,0.3,0.1,0.5
	c0,0.2,0.1,0.3,0.2,0.5c0.1,0.2,0.2,0.5,0.3,0.8c0,0.1,0.1,0.3,0.1,0.4v0.1l0,0l0,0c0.2,1.9-1.7-16.1-0.9-8.5h-0.1
	c-0.3-0.1-0.7-0.1-1,0c-0.1,0-0.4,0.1-0.4,0.2l-0.1,0.1l0,0l-0.1,1.2l-0.1,1.1v0.6v0.3c0,1.7-0.2,3.5-0.4,5.2
	c-0.1,0.3-0.1,0.6-0.1,0.9c0,0.2-0.1,0.5-0.1,0.7c-0.1,0.4-0.2,0.9-0.3,1.3c0.2-0.6,0.3-1.2,0.4-1.8v-0.5c0-0.1,0-0.1,0-0.2l0.1-0.4
	c0.1-0.5,0.2-1,0.2-1.6c0.1-1,0.2-2.1,0.2-3.1v-0.8V190c0-0.1,0,0,0,0v0.1l0.1,0.3l0.1,0.2l0.2,0.1c0.2,0.2,0.4,0.4,0.7,0.6
	c0.2,0.2,0.4,0.3,0.7,0.4c0.1,0.1,0.2,0.1,0.3,0.2l0,0l0,0c-0.1-0.9,0.8,7.5,0.4,4l0,0v-0.1v-0.2c0-0.1-0.1-0.3-0.1-0.4
	c-0.1-0.3-0.2-0.5-0.3-0.8c-0.1-0.4-0.2-0.7-0.3-1.1c-0.1-0.4-0.3-0.7-0.4-1.1C95.8,192.2,95.9,192.2,96,192.1L96,192.1L96,192.1z"
	/>
<path class="st0" d="M114.1,192l-0.6-1.1c-0.9,2.1-1.8,4.2-2.9,6.2C110.9,195.4,112.9,191.3,114.1,192z"/>
<path class="st1" d="M123.8,172.8c0.7,0.9,1.8,0.8,2.9,0.6s2.2-0.3,3,0.3c-3.5-2.4,2.3-4.8,3.6-7.5l-2-2.8c-1.8,0.4-3.5,2.3-5.2,4.5
	l-2.6,3.7c-0.9,1.3-1.8,2.6-2.7,3.8L123.8,172.8z"/>
<path class="st0" d="M129,169.8l-0.6-2.8C127.9,168.7,126,171.8,129,169.8z"/>
<path class="st0" d="M117.3,166.4c-3.3,4.1,2.9-1.7,0.5,2.9C118.3,167.6,119.5,165.7,117.3,166.4z"/>
<path class="st1" d="M133.8,154.3c-1.4,3-2.9,6-4.4,9l3.5-2.5L133.8,154.3z"/>
<path class="st1" d="M139.8,157.8c-0.8,1.1-2.9,2.1-2.8-0.1c4.1-1.5,2.4-5.4,6.1-6.9l-0.9,3.2c2.5,1.2,1.4-7,5.3-4.2
	c-0.4-5.5-5.2,0.4-4.1-5.6c-2.2,4.8-5.2,7.4-8.4,10.6c1.5-0.5,1.7-1,3.4-2c-1.7,2.6-2.8,7-4.7,10.2
	C137.4,163.1,136.6,159.3,139.8,157.8z"/>
<path class="st1" d="M149.4,145c2.1-2.7,5.1-7,2.5-9.7c-4.1,1.5-1.9,3.8-1.5,5.9c-1.1,0.5-3.2,3.2-4,1
	C147.3,142.2,147.4,145.5,149.4,145z"/>
<path class="st1" d="M157.2,134.3l-1.4-3.9l-0.4,1.6l-2-1.1c0.3,0.6,3.2,3.9,1.1,6.6C157,137,155.6,135.3,157.2,134.3z"/>
<path class="st1" d="M144.3,124.8c2.6-1,2.5-2.7,3.2-5.3c-1.7,3.2-4.7,7.5-4.2,9.1L143,128c-0.3,2.4-0.3,4.7,0.1,7.1
	C143.2,130.7,149.7,127,144.3,124.8z"/>
<path class="st1" d="M141.5,128.5l-0.1-3.3L141.5,128.5z"/>
<polygon class="st1" points="162.3,125.1 158.6,128.9 160.1,128.3 "/>
<path class="st1" d="M150.8,124.9c2.6-3.2-3.4,0.5-1.2-2.7c0.3-1.1-3.1,4.8-2,5.9C148.7,127.6,148.3,123.8,150.8,124.9z"/>
<path class="st1" d="M164.4,122.4l0.3-4.9L164.4,122.4z"/>
<path class="st1" d="M171.5,114.3l-1-1.6c3.4-2.7,4.4-8.7,9.2-9.1c-2.2-0.6-2.8-3.8-5.3-1.2c0.6,1.1-0.1,2.2,1.2,2.7
	c-1.2,1.1-2.3,0-3.4,0.5c0.1,3.3-3.3,5.9-3,8.7c0.3-1.1,0.7-1.1,1.3-1.6c0.1,5.4-6.6,2.1-3.4,6.5C166.7,117,171,116.5,171.5,114.3z"
	/>
<path class="st1" d="M161.4,108.2l-2.5,2.7c-1.3-2.2,2.3-3.8,0.9-5.4c-1.3-0.6-3.8,2.1-3.8,0.5c4.3,3.3-2.4,4.3,3.6,6
	c-2,4.3-3.6-0.6-6,3.7l1.6,2.7C157,113.1,159.6,113.7,161.4,108.2z"/>
<path class="st1" d="M169.8,96.9l2.4-0.5l-2.6-0.6c4.1-7,15.4-5.3,16.8-10.2c0.5-7,7.8-9,10.8-14.4c-0.2-3.7-2.7,1.7-4,1.2
	c-3.1-3.1,3.5-1.2,1.4-4.3c-2.4-2-6.3,3.5-9.3,4.7c-0.9,2.2-0.1,2.7,1,4.2c-1.8-0.4-3.5,1.2-5.3,0.8c-0.6,5.4-5.9,5-6.3,10.5
	c-2.8,0,1.6-3.2,0.4-2.1l-1.4,2.2h0.5c0.1,4.3-5.4,8.6-7.9,9.6c1.6-1.1,4-1.1,3.4,1.1h-3.2l0.9,6C167,100.7,173.6,100.2,169.8,96.9z
	"/>
<path class="st1" d="M162.9,98.5c-4.2,3.8,3.8,1.7-0.5,6l3.2-5.4L162.9,98.5z"/>
<path class="st0" d="M182.7,80.4l3-1.2C181.8,78.3,183.7,84.6,182.7,80.4z"/>
<polygon class="st0" points="188.1,72.1 190.3,75.2 190,72 "/>
<path class="st1" d="M196.7,66.9c-0.4-2.7-3-1.5-3.9,0.7C194.1,65.9,195.9,65.8,196.7,66.9z"/>
<path class="st0" d="M210.5,58.3c-2.5,3.8,2.9-2.8,3.8,1.6C213.4,58.6,213,55.6,210.5,58.3z"/>
<path class="st1" d="M225.6,50.9c-0.4,1.7-1.2,1.9-2.1,1.6C224.3,51.6,225,50.9,225.6,50.9z"/>
<path class="st1" d="M185.4,91.9c-0.3,0.5-0.6,0.9-0.9,1.3L185.4,91.9z"/>
<path class="st1" d="M185.9,91.1l-0.6,0.8C185.5,91.6,185.7,91.3,185.9,91.1z"/>
<path class="st1" d="M210.7,67.1L210.7,67.1c-0.2,0-0.3,0.1-0.5,0.1L210.7,67.1z"/>
<path class="st1" d="M123.2,182.1c-0.3,0.7-0.6,1.3-1,1.9L123.2,182.1L123.2,182.1z"/>
<path class="st1" d="M117.8,181.3c0.2-4.3,6.6-0.3,8.7-6.2c-1,2.3-2.1,4.6-3.3,7C118.3,183,123.2,178.8,117.8,181.3z"/>
<path class="st1" d="M142.9,137.4c0-0.1,0-0.2,0-0.2C143.1,136.8,143.1,137.1,142.9,137.4z"/>
<path class="st0" d="M83.1,76.6l-1,0.1l0.9-3.4C83,74.3,83.1,75.5,83.1,76.6z"/>
<path class="st0" d="M81.4,77.2c-0.4,1.9-0.8,3.8-1.3,5.8c-1.2-11-2.8-22-4.7-33l1.5,0.9c0.8-0.4,1.8,6.5,2.5,13.3
	S80.7,77.8,81.4,77.2z"/>
<path class="st0" d="M83.1,78.7c2.2,1.4,1.9,2.8,1.5,4.3s-0.9,3.1,0.7,4.9c-2.1-2.5-4.3-4.2-3.5-6.8L83.1,78.7z"/>
<path class="st2" d="M91.7,89.2c-0.7,1.9,1.1,4,0.6,5C89.2,93.8,91.4,90.8,91.7,89.2z"/>
<path class="st1" d="M103.7,93.6c0.1,0.3,0.1,0.6,0.1,0.9c-0.2-0.3-0.4-0.6-0.6-0.9H103.7z"/>
<path class="st1" d="M103.1,93.6h-1.4C102.3,92.9,102.7,93.1,103.1,93.6z"/>
<path class="st1" d="M103.8,94.4c0.4,0.8,0.9,1.5,1.6,2.1l0.2-0.8c0.4,1.1,1.6,3,0.8,3.6c0.2-2.2-0.8-2.2-2.8-2.2l-0.1,3.5
	C98.8,100.2,103.7,97.7,103.8,94.4z"/>
<path class="st2" d="M105.3,105.5l-2.7-3.5C105,100.9,105.3,104.1,105.3,105.5z"/>
<path class="st1" d="M102.4,110.7c-0.8-0.8-0.6-4.2-1.8-2.1c-0.4-0.6-0.6-1.2-0.4-1.9C100.9,109,103.9,106.7,102.4,110.7z"/>
<path class="st1" d="M100.2,106.7c-0.1-0.3-0.2-0.7-0.2-1C100.2,106,100.2,106.4,100.2,106.7z"/>
<path class="st2" d="M86.2,70.6c-0.2,0.4-0.6,0.5-0.9,0.4c0,0-0.1,0-0.1,0L86.2,70.6z"/>
<path class="st1" d="M99.7,117.8v1.3c0-0.4-0.1-0.7-0.1-1.1L99.7,117.8z"/>
<path class="st1" d="M63.8,12.5c-0.1,4.6-0.4,9.1,2.4,15.4c3.2-0.7,1.3,2.5,4.8,2.3c-0.8-3.3,0.8,2.9,2.5,9.3s3.7,12.8,4,10.1
	l-1.7-1.4l3.7,1.2c-0.4,3.3-2.5,8.1-0.2,10c-0.5,0.4-1.5-6.5-2.6-13.2s-2.2-13.5-2.6-12.9c1.8-1.5,4.3,7.7,6.4,17.4s3.8,20,4.8,20.4
	l-2,0.7c2.8,4.7,6.1,7.7,7.9,11.8l-2.5,1.2c0.6-3.2-1.2-3.9-2.6-6.9c0.4,1.9,0.5,3.9,0.3,5.8c-0.2,1.6-0.2,3.3,0.1,4.9
	c3.3-0.4,1.3-3.7,3.6,1.4c-1.3,1.6-5.1-1.7-4.1,3c-0.6,5.7,4.2,4.4,4.7,9.4l1.1-3.4c0.2,1.8,1,5.3-0.7,7.1c0.2-2.1-1.8-7.3-5.1-7.1
	c0.8,2.1-0.3,6.8-0.1,8.6l-2.3-1.1c-2.1,2,1.2,3.1-0.8,5.7c1.4,2.4,3.3-1.5,4.3-0.2c-0.8,0.5-1.9,5.2-0.4,6.8
	c4.8-1.2-1.5-5.5,3.1-8.6l-0.8,4.4c4.8,2.7-0.2-7.1,3.7-5.7c5,3.2-4.6,7,1.7,10c1.2-2.1,1.2-8.6,2.9-7.8c-1.8,2.3,1.7,4,2.3,7.2
	l-2.2,3.9c1.5,1.6,1.5,0.3,2.5-1c-2.7,5.7,0.6,15.2-2.8,23.2c0.7,4.7,2.1,0.6,3.8,2.7c-1.2,1.1-1.8,2.7-1.4,4.3
	c0.1,0.8,0.4,1.7,0.6,2.5c0.2,0.8,0.3,1.6,0.3,2.5c-0.2,0.9,2.6,2.4,3.8,1.6l-0.9-3.7c-0.2-0.6-0.3-1.1-0.5-1.7l-0.4-1.6
	c1.5,0.2,4.1-0.6,3.7-2.6c-5.6,1.6,3.4-9.3-2.9-9.8l2.9,0.1l-2-8.5l-0.4,0.3c1,0-2-7.2-0.8-11.9c1,1.3-0.1,9.2,3.1,4.6
	c1.7,3.5-0.9,9.7,0.4,16l2-1.2c0.7,1.7,1,3.5,1.1,5.3c0,1,0,1.9-0.1,2.9l-0.1,1.4l-0.1,0.7l-0.1,0.6c-0.1,0.8-0.3,1.6-0.4,2.5
	l-0.3,3.2c-0.1,1.2-0.2,2.4-0.2,3.4s0,2.1,0,3.1l-2.7-2.4c-1,2.8-3.3,6.2-1.1,8.6c0-3.1,1.4-1.5,2.6-0.9c1.3,4.2-0.5,10,0.8,14.3
	c-0.3-0.1-0.7-0.1-1,0c0.5,1.4,1.2,2.7,2,4c0,0.4-0.2,0.8-0.3,1.1c-0.2,0.3-0.4,0.6-0.7,0.9c-0.3,0.3-0.6,0.6-1,0.9
	s-0.7,0.6-1.1,0.9c0.1,0.1,0.3,0.3,0.4,0.4l0.4,1.3c0.6,1.4,1.2,2.9,2.1,1.7c0-0.7-0.1-1.4-0.3-2.1c1.9,1.8,1.9,2.6,1.7,3.5
	c-0.1,0.5-0.2,1-0.2,1.5c0,0.3,0.1,0.6,0.2,0.8l0.1,0.2c0,0,0.1,0,0.1,0.1l0.1,0.1h0.1l0,0l-1.6,0.4l-1,0.2h-0.2h-0.1h-0.1h0.2
	l0.7-0.1l1.5-0.3c0.7-0.2,0.4-0.1,0.5-0.1h-0.1h-0.2h-0.4c-0.1,0-0.3,0-0.4,0c-0.1,0-0.3,0-0.4,0c-0.5,0.1-0.9,0.3-1.3,0.5
	c-0.2,0.1-0.4,0.2-0.6,0.3s-0.2,0.1-0.3,0.1h0.1c-0.1,0-0.2,0-0.3,0l-1.3,0.3c-3.2,0.7-5.3,1.4-4.3,1.1c-0.8,0.2-1.7,0.5-2.4,0.7
	c-0.3,0.1-0.7,0.2-1,0.2c-0.6,0.2-1.2,0.4-1.8,0.6l-0.8,0.3l-0.3,0.1c-0.2,0.1-0.4,0.2-0.6,0.3c-0.2,0.1-0.4,0.2-0.4,0.3l-0.1,0.1
	c-0.1,0-0.1,0.1-0.2,0.1c-0.1,0.1,0,0,0,0l0,0v-0.1c0.1-0.1,0.1-0.1,0.2-0.2h0.1l0.2-0.1c0.1-0.1,0.3-0.2,0.4-0.2
	c0.5-0.3,0.9-0.4,0.6-0.2c-0.4,0.1-0.8,0.3-1.1,0.6c-0.1,0.1-0.2,0.1-0.3,0.2l-0.1,0.1l0,0l0.1-0.1c0,0,0-0.1,0-0.1
	c0,0,0-0.1,0.1-0.1l0.1-0.2c0.1-0.2,0.2-0.5,0.3-0.8c0-0.2,0.1-0.4,0.2-0.6c0.1-0.2,0.1-0.5,0.2-0.7c0.1-0.5,0.2-0.9,0.2-1.4
	c0-0.1,0-0.2,0-0.4l0.1-0.6l0.2-1.1c0.1-0.7,0.2-1.5,0.2-2.2v-1.1v-0.8c0-0.1,0-0.2,0-0.3c0.1-1.1,0.1-2.2,0.2-3.3v-1.6v-0.4l0,0
	v0.2c0,0.1,0,0.1,0.1,0.2l0.3,0.3l0.6,0.5l0.3,0.2l0.2,0.1l0,0l0,0c-0.9-8.4,1.2,11.4,1,9.4l0,0l0,0v-0.1l-0.1-0.3
	c-0.1-0.3-0.2-0.7-0.4-1c-0.1-0.5-0.3-1-0.4-1.5l-0.2-0.4c0-0.1-0.1-0.3-0.2-0.5c-0.1-0.3-0.3-0.7-0.4-1c-0.2-0.3-0.3-0.7-0.5-1
	s-0.4-0.9-0.6-1.3c-0.1-0.2,0.2,0.3,0.6,1.3c0.2,0.5,0.5,0.9,0.7,1.4c0.2,0.5,0.4,1.2,0.6,1.6c0.2,0.5,0.3,1,0.5,1.5
	c0.2,0.3,0.3,0.7,0.4,1.1l0.1,0.2v0.1l0,0c-2.2-21.1-0.6-5.9-1.1-10.6l0,0v-0.1c0-0.1-0.1-0.1-0.1-0.2c-0.1-0.2-0.1-0.4-0.2-0.6
	c0.1,0,0.2,0.1,0.2,0.1l0,0c0.5,5-1.2-11.2,1.2,11.3l0,0V196v-0.2c0-0.2-0.1-0.3-0.1-0.4c-0.1-0.3-0.2-0.5-0.3-0.9
	c-0.1-0.4-0.2-0.7-0.3-1.1c-0.1-0.3-0.2-0.6-0.3-0.9s-0.2-0.7-0.3-0.9c-0.2-0.5-0.4-0.9-0.5-1c0.3,0.6,0.6,1.2,0.8,1.9
	c0.2,0.5,0.4,1.1,0.6,1.6c0.1,0.5,0.3,0.9,0.5,1.3c0.1,0.2,0.1,0.4,0.2,0.6l0,0l0,0c0.3,2.8-2.6-24.2-1.3-12.8l0,0l0,0l0,0l-0.1-0.1
	l0.1,0.1l0,0l0,0c-0.3-2.8,2.6,24.3,1.3,12.8l0,0v-0.2c-0.1-0.3-0.1-0.5-0.2-0.8c0-0.1-0.1-0.2-0.2-0.4c-0.1-0.2-0.1-0.3-0.1-0.5
	c-0.1-0.4-0.2-0.7-0.3-1l-0.2-0.5c-0.1-0.2-0.1-0.4-0.2-0.6c-0.2-0.4-0.3-0.8-0.5-1.2c-0.4-0.7-0.8-1.7-1.3-2.6
	c-0.2-0.5-0.5-0.8-0.8-1.3s-0.6-1-0.9-1.5l0,0c0,0,0.1,0,0.1,0s0.2,0,0.3,0l0.3-0.2c0.7-0.4,1.2-1,1.7-1.6c0.7-0.9,1.3-1.9,1.8-2.9
	l-0.8-0.2c0.7-0.7,1.3-1.5,2-2.3l1.5,2.7c0.5-1.8,3.7-1.8,2.5-4l-0.6,0.4l0.6-2.4l0.9,3.6c1.4-0.8,1.5-3,1.7-5.4s0.4-5.1,2.1-7.3
	c1.9,0.6,0.9,2.8-0.1,5.1s-2,4.8-0.1,6.5c1.6-0.9,4-2.8,3.5-4.5c-1.2-0.6-2,0.4-2.7,1.4c0.2-2.6,2.1-4.7,3.9-7
	c0.9-1.1,1.7-2.4,2.3-3.6c0.7-1.1,0.8-2.5,0.3-3.7l-1.7,0.9c-0.6,0.3-1.4,1-2,1.3c0.3-0.6,0.7-1.1,1.2-1.5c0.3-0.3,0.7-0.6,1.2-0.9
	c0.8-0.4,1.5-0.7,2.4-1c1.5-0.6,2.5-1,1.7-2.4l2.2,5.5c0.3-2.3,1-4.6,2.1-6.7c0.5-1.1,1-2.1,1.4-3.1c0.4-1,0.7-2.1,0.9-3.2
	c-1.2-0.9-2,0.3-2.5,1.6s-0.8,2.7-1,2.5l-0.7-2.7c4.8-4.1,2.4-0.4,8-5.6l-1.6-1.1c3.9-0.4,2.9-9.1,5.7-4.1l-2.1,1l2,1.2l3.5-8
	c1,1.7,2.9-2.1,4.2,0.1v-3.8c3.6,0.6,0.1,7,1.9,8.7c1.3,0.8,2-0.6,2.2-1.3c-0.1,4.6-5.9,2.9-8.1,6l0.7,2.7l-2.3-1.7
	c-0.4,1.6,0.4,3.8,1,4.9c-2.7,0.4-3.6,2.2-4.4,4.3s-1.3,4.7-3.3,6.7c1.3-4.8-4,0.8-4.1-0.3c-0.8,1-1,3.6-1.6,5.8
	c-0.1,0.6-0.3,1.1-0.6,1.6c-0.2,0.5-0.5,1-0.8,1.5c-0.5,0.8-1.4,1.3-2.4,1.3c-2,0.5,0.2-3.9-2.5-1.1c-1.1,2.2-0.7,4.3,1.3,3.9
	c-2.2,4.8-6.2,9.4-9.4,13.5l-0.7-2.2c-3.3,1.6-3.2,5.4-2.9,8c-0.8-0.2-0.6,0.3-1.1-0.8c-2.4,0.1-2.5,1.5-2.8,3.2
	c-0.1,0.9-0.3,1.8-0.7,2.6c-0.1,0.2-0.2,0.3-0.3,0.5l-0.2,0.2l-0.1,0.1l-0.1,0.1c-0.1,0-0.1,0-0.2,0l-0.5,0.1c-0.4,0-0.8,0-1.1,0
	c0.1,1.2,1,2.1,2.2,2.2c0.2,0,0.4,0,0.6,0c0.2-0.1,0.5-0.2,0.7-0.3c0.2-0.2,0.4-0.3,0.6-0.5c0.2-0.2,0.3-0.5,0.5-0.7
	c0.3,1,0.7,2,1,3c2.9-1.6,5.4-3.8,7.4-6.6c1.9-2.4,3.3-5.2,4.3-8.1c0.1,1.1,0.2,2.2,0.3,3.3c3-0.5,2.8-1.8,2.5-3s-0.5-2.3,2.6-2.6
	c0.9-3.2-2.6,0.9-2.3-1.8c2-1.3,4,3.6,6.4,0.6c-1.8,3.3-3.7,6.4-5.9,9.5c-2.3,3.3-5,6.4-7.9,9.1c-1.7,1.6-3.6,2.9-5.7,4
	c-0.6,0.3-1.2,0.5-1.9,0.8c-0.7,0.2-1.5,0.4-2.2,0.6c-1.2,0.1-2.2,0.2-3.3,0.2h-0.9c-0.3,0-0.6,0-1,0l-1.1-0.1
	c-0.4-0.1-0.9-0.2-1.3-0.3c-0.6-0.2-1.1-0.4-1.6-0.7c-0.6-0.3-1.2-0.8-1.7-1.3c-0.2-0.3-0.5-0.5-0.7-0.8c-0.2-0.2-0.3-0.5-0.5-0.8
	c-0.1-0.2-0.3-0.5-0.4-0.7l-0.2-0.6c-0.1-0.2-0.2-0.4-0.2-0.6l0-0.5l-0.1-0.5l-0.1-0.4l-0.3-1.5c-0.2-0.9-0.4-1.7-0.6-2.6
	c-0.6-0.1-0.7,0.6-0.7,1.3c-0.6-0.6-1.1-1.3-1.3-2.2l0.2,0.5c-0.3-0.7-0.6-1.6-0.9-2.5s-0.4-2-0.6-3.1s-0.3-2.2-0.3-3.4
	s-0.1-2.4,0-3.7c0.2-5.1,0.7-10.2,1.5-15.2c0.6-4.9,1.1-9.4,0.8-12.7c-0.1-1.4-0.4-2.8-1-4.1c-0.3-0.9-1.1-1.6-2-1.9
	c1.2-0.8,2.5,1.7,2.3-1.6c-0.6-0.3-1.3-1.1-2.5-0.4c4.4-7.9-0.2-18.5,2.5-28c-1.3,0.2-2.1-1.9-3.1-1.9c3.1-3.3-0.4-8.8,1.3-11.9
	l-1.5,1l-0.4-9.6c-0.6-0.3-0.6,1-0.7,1.8c-0.8-2,0.9-2.6,2.3-2.8l-3.6-4c2.4-6.3,1-13.2-0.8-20.2s-4.2-14.2-3.5-21.5
	c-2.7-1.3-4.7-3.9-5.2-6.9l-0.5,1.9c-2.8-3.3,1.3-0.4-0.3-3.4c-2-1.8-4.1,0-2.2,2.6c-0.6,1.9-1.7,1-2.6-0.2
	C60.2,33.8,60.3,22.6,63.8,12.5z"/>
<path class="st1" d="M254.1,22.5c-1.8,0.2,2.1-4.5-1.9-3.8c-2.6,1.2-4.9,2.9-6.8,5c-2.2,2.3-4.2,4.7-6,7.2c-1.9,2.6-3.9,5.3-6,7.7
	c-2,2.4-4.2,4.6-6.7,6.5c-3.4,1.3-3.9,2-6.4,3.6c0.4,0.3,0.8,0.6,1.3,0.8c-1.9,2.5-4.1,7-6.9,8.9c0,1,1.4,2.8,1.9,1.1
	c-1.1,5-7.8,4.6-7.9,7.8c2.4-1.1,0.4,3,2.8,1.3c-2.5,4.3-8.4-0.2-11.3,2.6c0.4,0.5,0.7,1,1.3,0.5c-5,1.8-5.7,12-10.3,9.6l0.9,2.7
	c-2.5,0.7-3.2-0.4-5.5,1.9c-0.4,2.2,1.7,1,1.9,2c-2.2-0.4-4.4,4.7-8.3,5.2c-2.8-1.7,6.1-1.3,5-5.1c-0.5-0.4-0.9-0.2-1.2,0.2
	c7.8-10.5,20.9-13.8,24.8-24c3.2-0.7,2.4-3.4,1.1-5.5c-1.9,1-6.8,4.4-3.1,7l-4.3,1.3c-0.5,1.2-4.4-1.4-5.3-1.4
	c1.7-1.7-0.5-6.4-3.7-4.7c3-5.5,7,7.1,9.1,1.8l-2.3-2.5c0.9,1.9,4.8-1.2,4.9-3.3l-1,0.2c9.5-11.3,19.4-28.2,28.2-42
	c4.5,0.9,5.7-2,6.7-4.9s2-5.9,5.7-5.3c0.2-2.1-3.9,0.2-2.6-3.1c0.6-1.7,2.4-0.5,2.9,0l0.4-1.7C252.6,3.9,256.4,10.7,254.1,22.5z"/>
<path class="st3" d="M171.6,89.3c-0.2,6-5.2,10.8-11.2,10.6c-5.8-0.2-10.4-4.8-10.6-10.6c-0.2-6,4.6-11.1,10.6-11.2
	c6-0.2,11.1,4.6,11.2,10.6C171.6,88.9,171.6,89.1,171.6,89.3z M169.7,105.7v63.6h-18.2v-63.6H169.7z"/>
<path class="st3" d="M228.3,112h-2.7c-9,0.1-16.2,7.4-16.4,16.4v18.2c0,19.1-15.5,34.5-34.5,34.5c0,0,0,0-0.1,0h-2.7v-18.1h2.7
	c9-0.2,16.2-7.4,16.4-16.4v-18.2c0-19.1,15.5-34.5,34.6-34.6h2.7V112z"/>
<path class="st3" d="M257.8,89.3c0,6-4.9,10.9-10.9,10.9S236,95.3,236,89.3s4.9-10.9,10.9-10.9S257.8,83.3,257.8,89.3z M256,105.7
	v63.6h-18.2v-63.6H256z"/>
<path class="st3" d="M303,102.9c19.1,0,34.6,15.4,34.6,34.5c0,19.1-15.4,34.6-34.5,34.6c-19.1,0-34.6-15.4-34.6-34.5
	c0,0,0-0.1,0-0.1C268.5,118.4,284,103,303,102.9z M303,153.8c9,0,16.4-7.3,16.4-16.4c0-9-7.3-16.4-16.4-16.4
	c-9,0-16.4,7.3-16.4,16.4C286.8,146.4,294,153.7,303,153.8L303,153.8z"/>
<path class="st3" d="M411.6,105.7v84.2L366.1,135v34.2h-18.2V85.1l45.5,54.9v-34.3H411.6z"/>
<path class="st1" d="M145.4,210.7c0-7,3.2-9.5,7.7-9.5c5,0,7.4,2.1,7.4,8.4v1.4h-12.3c0.1,5.6,2.1,6.6,5.5,6.6
	c1.9,0,3.7-0.2,5.5-0.6l0.5,2.4c-2,0.5-4.1,0.7-6.1,0.7C148,220.1,145.4,217.5,145.4,210.7z M157.5,208.8c0-4.1-1.4-5.1-4.6-5.1
	c-2.4,0-4.3,1-4.6,5.1H157.5z"/>
<path class="st1" d="M161.6,201.9h3l5.4,14.9l5.4-14.9h2.8l-6.9,17.9h-2.9L161.6,201.9z"/>
<path class="st1" d="M178.8,210.7c0-7,3.2-9.5,7.7-9.5c5,0,7.4,2.1,7.4,8.4v1.4h-12.3c0.1,5.6,2.1,6.6,5.5,6.6
	c1.9,0,3.7-0.2,5.5-0.6l0.5,2.4c-2,0.5-4.1,0.7-6.1,0.7C181.4,220.1,178.8,217.5,178.8,210.7z M190.9,208.8c0-4.1-1.4-5.1-4.6-5.1
	c-2.4,0-4.3,1-4.6,5.1H190.9z"/>
<path class="st1" d="M197.2,201.9h2l0.6,1.8c2.3-1.3,4.9-2,7.6-2.2c3.3,0,5,1.5,5,5v13.2h-2.8v-12.5c0-2.2-0.6-3.1-3-3.1
	c-2.3,0.2-4.6,0.9-6.6,2v13.6h-2.8L197.2,201.9z"/>
<path class="st1" d="M218,214.9v-10.5h-3.2v-2.5h3.2v-6.3l2.8-0.8v7h4.8v2.5h-4.8v10.1c0,2.2,0.5,2.7,1.4,2.7c1.1,0,2.2-0.1,3.3-0.3
	l0.2,2.6c-1.3,0.2-2.7,0.3-4,0.3C219.4,219.8,218,218.2,218,214.9z"/>
<path class="st3" d="M227.6,210.7c0-6.8,3.2-9.5,8.6-9.5s8.6,2.7,8.6,9.5s-3.1,9.6-8.6,9.6S227.6,217.5,227.6,210.7z M241.9,210.7
	c0-6-2.6-7-5.8-7s-5.7,1-5.7,6.9s2.6,7,5.8,7S241.9,216.6,241.9,210.7z"/>
<path class="st3" d="M247.9,201.9h2l0.6,2.1c2-1.3,4.3-2.1,6.7-2.5l0.4,2.6c-2.4,0.3-4.8,1.1-6.9,2.3v13.3h-2.8L247.9,201.9z"/>
<path class="st3" d="M260.5,227l0.4-2.5c1.8,0.3,3.6,0.4,5.4,0.4c4.8,0,5.8-0.4,5.8-6.9v-0.5c-2.2,1.5-4.8,2.4-7.5,2.5
	c-2.6,0-5.8-0.5-5.8-9.2s3.4-9.3,6-9.3c2.6,0.1,5.1,0.8,7.4,2l0.8-1.6h1.8v15.9c0,7.9-1.5,9.7-8.4,9.7
	C264.4,227.5,262.4,227.3,260.5,227z M272,215v-9.1c-2-1.1-4.2-1.8-6.5-1.9c-2.8,0-3.9,1.1-3.9,6.6s1.1,6.7,3.9,6.7
	C267.8,217.2,270.1,216.4,272,215L272,215z"/>
<path class="st3" d="M278.1,214.6c0-2.3,0.5-3.9,1.9-4.6c2.2-1.1,4.9-1.1,10-1.1V208c0-3.1-0.5-4.3-3.8-4.3c-1.9,0-3.9,0.2-5.8,0.7
	l-0.5-2.4c2.1-0.5,4.2-0.8,6.4-0.8c4.7,0,6.5,1.6,6.5,6.3v12.1h-2l-0.6-1.9c-2.2,1.4-4.7,2.1-7.3,2.2
	C280.6,219.9,278.1,219.1,278.1,214.6z M290,215.4v-4.3c-5.1,0-7.1,0.3-8.1,0.8c-0.8,0.4-0.9,1.8-0.9,2.8c0,2.2,1,2.7,2.7,2.7
	C285.9,217.3,288,216.6,290,215.4z"/>
<path class="st3" d="M297,201.9h2l0.6,1.8c2.3-1.3,4.9-2,7.6-2.2c3.3,0,5,1.5,5,5v13.2h-2.7v-12.5c0-2.2-0.6-3.1-3-3.1
	c-2.3,0.2-4.6,0.9-6.6,2v13.6H297V201.9z"/>
<path class="st3" d="M316.5,193.5h2.9v4h-2.9V193.5z M316.5,201.9h2.8v17.8h-2.8L316.5,201.9z"/>
<path class="st3" d="M323.1,219.1l0.5-2.4c2,0.5,4,0.9,6.1,0.9c3.9,0,4.9-0.6,4.9-3.1c0-1.8-0.9-2.2-3.9-2.6
	c-5.6-0.8-7.2-1.3-7.2-5.3c0-3.8,2.4-5.2,7.1-5.2c2.1,0,4.1,0.2,6.1,0.6l-0.5,2.4c-1.9-0.3-3.8-0.5-5.7-0.5c-3.2,0-4.2,0.7-4.2,2.6
	s0.7,2.3,4.9,2.8c4.8,0.6,6.3,1.7,6.3,5.1c0,4.8-2.6,5.7-7.7,5.7C327.5,220,325.2,219.7,323.1,219.1z"/>
<path class="st3" d="M339.8,214.6c0-2.3,0.5-3.9,1.9-4.6c2.3-1.1,4.9-1.1,10-1.1V208c0-3.1-0.5-4.3-3.8-4.3c-1.9,0-3.9,0.2-5.8,0.7
	l-0.5-2.4c2.1-0.5,4.2-0.8,6.4-0.8c4.7,0,6.5,1.6,6.5,6.3v12.1h-2l-0.6-1.9c-2.2,1.4-4.7,2.1-7.3,2.2
	C342.4,219.9,339.8,219.1,339.8,214.6z M351.7,215.4v-4.3c-5.2,0-7.1,0.3-8.1,0.8c-0.8,0.4-0.9,1.8-0.9,2.8c0,2.2,1,2.7,2.7,2.7
	C347.6,217.3,349.7,216.6,351.7,215.4z"/>
<path class="st3" d="M360.1,214.9v-10.5h-3.2v-2.5h3.2v-6.3l2.8-0.8v7h4.8v2.5h-4.8v10.1c0,2.2,0.5,2.7,1.5,2.7
	c1.1,0,2.2-0.1,3.3-0.3l0.2,2.6c-1.3,0.2-2.7,0.3-4,0.3C361.4,219.8,360.1,218.2,360.1,214.9z"/>
<path class="st3" d="M371.4,193.5h2.9v4h-2.9V193.5z M371.4,201.9h2.8v17.8h-2.8V201.9z"/>
<path class="st3" d="M377.5,210.7c0-6.8,3.2-9.5,8.6-9.5s8.5,2.7,8.5,9.5s-3.1,9.6-8.6,9.6S377.5,217.5,377.5,210.7z M391.8,210.7
	c0-6-2.6-7-5.8-7s-5.7,1-5.7,6.9s2.6,7,5.8,7S391.8,216.6,391.8,210.7z"/>
<path class="st3" d="M397.7,201.9h2l0.6,1.8c2.3-1.3,4.9-2,7.6-2.2c3.3,0,5,1.5,5,5v13.2h-2.8v-12.5c0-2.2-0.6-3.1-3-3.1
	c-2.3,0.2-4.6,0.9-6.6,2v13.6h-2.8L397.7,201.9z"/>
<path class="st1" d="M435.7,105.1C435.7,105.1,435.7,105.1,435.7,105.1c-10.7,0-19.3,8.7-19.3,19.3s8.7,19.3,19.3,19.3
	s19.3-8.7,19.3-19.3C455,113.7,446.4,105.1,435.7,105.1z M435,136.7c-3.2,0-6.3-0.4-9.4-1.1l0.7-4.7c2.9,0.6,5.9,0.9,8.9,1
	c3.6,0,4.4-0.4,4.4-2.4c0-1.6-0.6-1.9-5-2.5c-7.4-1-9-2.2-9-7.7s3.5-7.3,10-7.3c3.2,0,6.5,0.3,9.6,0.9l-0.8,4.8
	c-2.9-0.4-5.9-0.7-8.9-0.7c-2.6,0-3.4,0.4-3.4,2.1c0,1.9,0.9,2,5.5,2.5c7.1,0.8,8.6,2.2,8.6,7.4C446.2,135.4,442.3,136.7,435,136.7z
	"/>
<path class="st3" d="M45.9,173.9c-28.8,0-46-22-46-43.9c0-22,17.1-43.6,46-43.6c17.6,0,43.2,14.2,43.2,46.1v6.9L27,139.3
	c2.3,7.3,10.3,12.2,18.4,12.2c7.5,0,13.6-3.4,18.8-10.2l20,12.4C74.6,166.1,60.9,173.9,45.9,173.9z M27.6,118.1h32.7
	c-3.2-6.2-9.7-10-16.6-9.8C36.6,108.3,31,111.7,27.6,118.1z"/>
</svg>
