<svg xmlns="http://www.w3.org/2000/svg" xmlns:xlink="http://www.w3.org/1999/xlink" id="Ebene_2_00000176044024607868327750000016185586902527330968_" x="0px" y="0px" viewBox="0 0 179.1 55.2" style="enable-background:new 0 0 179.1 55.2;" xml:space="preserve"><style type="text/css">	.st0{fill:#FFFFFF;}	.st1{fill:#1D1D1B;}</style><g>	<path class="st0" d="M69.2,7.8h40v29.8c0,1,0.4,1.5,1.5,1.5h3.9c1,0,1.5-0.4,1.5-1.5V10.3c0-6.2-3-9.3-9.3-9.3h-43  c-1,0-1.5,0.4-1.5,1.5v35.2c0,1,0.4,1.5,1.5,1.5h3.9c1,0,1.5-0.5,1.5-1.5V7.8z"></path>	<path class="st1" d="M7.9,25.9v27.3c0,1.3-0.6,2-1.9,2H2c-1.3,0-2-0.7-2-2v-43c0-6.5,3.3-9.8,9.8-9.8h43c1.2,0,1.9,0.6,1.9,1.9v3.9  c0,1.3-0.6,2-1.9,2h-45V18h45c1.3,0,2,0.7,2,2v3.9c0,1.3-0.7,2-2,2C52.8,25.9,7.9,25.9,7.9,25.9z M114.6,40.1h-3.9  c-1.6,0-2.5-0.9-2.5-2.5V8.8h-38v28.8c0,1.5-0.9,2.4-2.4,2.5h-3.9c-1.6,0-2.5-0.9-2.5-2.5V2.5c0-1.6,0.9-2.5,2.5-2.5h43  c6.8,0,10.3,3.5,10.3,10.3v27.3C117,39.2,116.1,40.1,114.6,40.1z M69.2,7.8h40v29.8c0,1,0.4,1.5,1.5,1.5h3.9c1,0,1.5-0.4,1.5-1.5  V10.3c0-6.2-3-9.3-9.3-9.3h-43c-1,0-1.5,0.4-1.5,1.5v35.2c0,1,0.4,1.5,1.5,1.5h3.9c1,0,1.5-0.5,1.5-1.5V7.8z M132.1,25.9v27.3  c0,1.3-0.6,2-1.9,2h-3.9c-1.3,0-2-0.7-2-2v-43c0-6.5,3.3-9.8,9.8-9.8h43c1.2,0,1.9,0.6,1.9,1.9v3.9c0,1.3-0.6,2-1.9,2h-45V18h45  c1.3,0,2,0.7,2,2v3.9c0,1.3-0.7,2-2,2C177.1,25.9,132.1,25.9,132.1,25.9z"></path></g></svg>