<svg xmlns="http://www.w3.org/2000/svg" id="Ebene_2" data-name="Ebene 2" viewBox="0 0 220.85 73.7" class="h-8 text-yellow-400 lg:h-12 lg:w-52" alt="Home"><g id="Ebene_1-2" data-name="Ebene 1"><path fill="#fbba00" d="M37.57,0c-1.29,0-2.49,.07-3.64,.21C23.22,1.3,13.62,7.1,7.5,16.14c-1.95,.2-2.99,.93-3.11,2.19-.08,.87,.06,1.71,.41,2.51-2.11,4.38-3.32,9.07-3.59,13.93-.88,.52-1.13,1.24-1.18,1.8-.15,1.58,.31,3.05,1.35,4.38,.65,5.87,2.73,11.56,6.02,16.48,.38,1.51,1.41,2.85,3.09,3.99,5.91,6.66,13.91,10.9,22.6,12l.85,.1c1.26,.12,2.45,.18,3.63,.18,20.06,0,36.38-16.53,36.38-36.84S57.63,0,37.57,0M21.14,17.56c-2.71-.42-5.13-.8-7.26-1.07,5.54-5.12,12.62-7.93,20.15-7.94h.05c8.9,.01,16.89,3.99,22.37,10.28-10.32,2.63-24.71,.38-35.3-1.27m5.93,9.82c9.83-.37,20.71-2.84,30.69-6.93,3.62,4.78,5.86,10.69,6.13,17.1l-.18-.51c-12.57,3.65-30.61,.83-43.79-1.22-6.21-.97-11.34-1.77-14.78-1.77-.24,0-.47,0-.69,.01,.56-3.51,1.71-6.86,3.44-9.97,3.92,2.42,10.81,3.61,19.17,3.29M8.17,54.11c-1.89-3.27-3.16-6.88-3.74-10.61,9.96,5.88,34.85,5.57,59.49-4.51-.03,6.61-2.13,12.88-6.08,18.16-10.34,1.25-22.78-.69-32.8-2.25-6-.94-10.27-1.57-13.13-1.57-1.75,0-2.97,.24-3.74,.79m45.81,7.3c-5.45,4.97-12.54,7.77-19.95,7.78-5.84,0-11.49-1.74-16.32-4.94,9.29,2.06,23.01,1.03,36.27-2.84"></path><g><path fill="#474747" d="M82.62,71.42c-.22-.22-.33-.48-.33-.8V7.08c0-.31,.11-.58,.33-.8,.22-.22,.49-.33,.8-.33h11c.31,0,.58,.11,.8,.33,.22,.22,.33,.49,.33,.8v63.54c0,.32-.11,.58-.33,.8-.22,.22-.49,.33-.8,.33h-11c-.31,0-.58-.11-.8-.33"></path><path fill="#474747" d="M150.63,5.95h11c.31,0,.58,.11,.8,.33,.22,.22,.33,.49,.33,.8v63.54c0,.31-.11,.58-.33,.8-.22,.22-.49,.33-.8,.33h-11c-.31,0-.58-.11-.8-.33-.22-.22-.33-.49-.33-.8V29.17c0-.25-.06-.38-.19-.38s-.25,.09-.38,.28l-9.96,15.6c-.31,.5-.75,.75-1.32,.75h-5.55c-.56,0-1-.25-1.32-.75l-9.96-15.6c-.13-.19-.25-.27-.38-.24-.13,.03-.19,.17-.19,.42v41.36c0,.31-.11,.58-.33,.8-.22,.22-.49,.33-.8,.33h-11c-.31,0-.58-.11-.8-.33-.22-.22-.33-.49-.33-.8V7.08c0-.31,.11-.58,.33-.8s.49-.33,.8-.33h11c.56,0,1,.25,1.32,.75l14.1,21.9c.19,.38,.38,.38,.56,0l14.19-21.9c.31-.5,.75-.75,1.32-.75"></path><path fill="#474747" d="M183.63,70.11c-3.76-1.6-6.66-3.89-8.69-6.86-2.04-2.98-3.06-6.44-3.06-10.39v-2.07c0-.31,.11-.58,.33-.8,.22-.22,.49-.33,.8-.33h10.72c.31,0,.58,.11,.8,.33,.22,.22,.33,.49,.33,.8v1.41c0,2.51,1.16,4.62,3.48,6.34,2.32,1.72,5.45,2.58,9.4,2.58,3.32,0,5.8-.7,7.43-2.11,1.63-1.41,2.44-3.15,2.44-5.22,0-1.5-.5-2.77-1.5-3.81-1-1.03-2.37-1.94-4.09-2.73-1.73-.78-4.46-1.86-8.23-3.24-4.2-1.44-7.75-2.91-10.67-4.42-2.91-1.5-5.36-3.56-7.33-6.16s-2.96-5.81-2.96-9.64,.97-7.05,2.91-9.87c1.94-2.82,4.64-4.98,8.08-6.49,3.45-1.5,7.43-2.26,11.94-2.26,4.76,0,9.01,.85,12.74,2.54,3.73,1.69,6.64,4.06,8.74,7.1,2.1,3.04,3.15,6.56,3.15,10.58v1.41c0,.31-.11,.58-.33,.8-.22,.22-.49,.33-.8,.33h-10.81c-.31,0-.58-.11-.8-.33-.22-.22-.33-.49-.33-.8v-.75c0-2.63-1.08-4.87-3.24-6.72-2.16-1.85-5.12-2.77-8.88-2.77-2.95,0-5.25,.63-6.91,1.88-1.66,1.25-2.49,2.98-2.49,5.17,0,1.57,.49,2.88,1.46,3.95,.97,1.07,2.41,2.02,4.32,2.87,1.91,.85,4.87,1.99,8.88,3.43,4.45,1.63,7.94,3.07,10.48,4.32,2.54,1.25,4.83,3.12,6.86,5.59,2.04,2.48,3.06,5.69,3.06,9.63,0,5.89-2.16,10.54-6.49,13.96-4.32,3.42-10.18,5.12-17.58,5.12-5.01,0-9.4-.8-13.16-2.4"></path></g></g></svg>