<?xml version="1.0" encoding="UTF-8"?>
<!-- Generator: Adobe Illustrator 26.0.3, SVG Export Plug-In . SVG Version: 6.00 Build 0)  -->
<svg xmlns="http://www.w3.org/2000/svg" xmlns:xlink="http://www.w3.org/1999/xlink" version="1.1" id="Layer_1" x="0px" y="0px" viewBox="0 0 169.39 121.77" style="enable-background:new 0 0 169.39 121.77;" xml:space="preserve">
<style type="text/css">
	.st0{fill:#80C41C;}
</style>
<g>
	<g>
		<path class="st0" d="M70.53,18.85v-0.46h1.07c0.82,0,1.3,0.45,1.3,2.54c0,1.12-0.05,2.54-1.29,2.54h-1.08v-0.46h0.33v-4.17H70.53z     M71.26,23.01h0.34c0.49,0,0.87-0.16,0.87-2.08c0-1.94-0.42-2.09-0.78-2.09h-0.43V23.01z"></path>
		<path class="st0" d="M70.47,29.57l0.6-3.91l0.41,0.14l-0.52,3.31h1.1v-2.58h0.41v2.58h0.32v0.46h-0.32v1.27h-0.41v-1.27H70.47z"></path>
		<path class="st0" d="M72.37,33.93c-0.19-0.21-0.39-0.38-0.65-0.38c-0.74,0-0.79,1.17-0.81,1.85c0.24-0.26,0.49-0.41,0.81-0.41    c0.77,0,1.05,0.79,1.05,1.63c0,0.91-0.39,1.67-1.17,1.67c-1.05,0-1.12-1.58-1.12-2.55c0-1.04,0.1-2.67,1.21-2.67    c0.34,0,0.66,0.16,0.9,0.44L72.37,33.93z M71.64,37.8c0.5,0,0.71-0.55,0.71-1.17c0-0.58-0.14-1.17-0.68-1.17    c-0.29,0-0.54,0.25-0.75,0.49C70.92,37.55,71.26,37.8,71.64,37.8z"></path>
		<path class="st0" d="M72.36,40.97h-1.68v-0.46h2.27l-1.85,5.18l-0.37-0.21L72.36,40.97z"></path>
		<path class="st0" d="M71.2,49.98h0.11l1.13-2.19l0.33,0.26l-1.12,2.15l1.34,2.61l-0.34,0.26l-1.31-2.63H71.2v2.53h-0.41v-5.08    h0.41V49.98z"></path>
		<path class="st0" d="M72.76,77.95c0,0.82,0.11,2.61-1.13,2.61c-1.24,0-1.13-1.73-1.13-2.61c0-1.2-0.05-2.61,1.13-2.61    C72.92,75.34,72.76,77.38,72.76,77.95z M70.92,77.95c0,2,0.29,2.12,0.71,2.12c0.47,0,0.71-0.24,0.71-2.12    c0-1.96-0.27-2.13-0.71-2.13C70.86,75.82,70.92,76.94,70.92,77.95z"></path>
		<path class="st0" d="M70.97,84.78l1.2-1.54h-1.7v-0.46h2.26v0.46l-1.13,1.44c0.63-0.02,1.18,0.45,1.18,1.29    c0,0.68-0.29,1.2-0.74,1.54c-0.34,0.26-0.73,0.41-1.51,0.41v-0.48c0.67,0,0.96-0.09,1.17-0.24c0.36-0.24,0.65-0.69,0.65-1.22    c0-0.65-0.46-0.85-0.91-0.85c-0.16,0-0.32,0.04-0.48,0.06V84.78z"></path>
		<path class="st0" d="M70.79,90.16h1.1c0.4,0,0.91,0.43,0.91,1.35c0,0.62-0.2,1.22-0.7,1.43l0.84,2.18l-0.37,0.22l-0.91-2.36H71.2    v2.26h-0.41V90.16z M71.2,92.52h0.6c0.35,0,0.57-0.33,0.57-1.01c0-0.66-0.26-0.89-0.67-0.89h-0.5V92.52z"></path>
		<path class="st0" d="M72.75,102.43l-0.31,0.32l-0.24-0.36c-0.16,0.17-0.36,0.28-0.57,0.28c-0.57,0-1.13-0.7-1.13-2.6    c0-1.78,0.49-2.61,1.13-2.61c0.57,0,1.13,0.69,1.13,2.61c0,0.62-0.05,1.36-0.31,1.92L72.75,102.43z M71.43,101.26l0.31-0.33    l0.43,0.63c0.12-0.47,0.16-0.98,0.16-1.48c0-0.58-0.04-2.15-0.71-2.15c-0.66,0-0.7,1.59-0.7,2.17c0,0.54,0.06,2.09,0.67,2.09    c0.14,0,0.26-0.05,0.35-0.17L71.43,101.26z"></path>
		<path class="st0" d="M72.76,107.45c0,0.81,0.11,2.6-1.13,2.6c-1.24,0-1.13-1.73-1.13-2.6c0-1.2-0.05-2.61,1.13-2.61    C72.92,104.84,72.76,106.88,72.76,107.45z M70.92,107.45c0,1.99,0.29,2.12,0.71,2.12c0.47,0,0.71-0.24,0.71-2.12    c0-1.97-0.27-2.13-0.71-2.13C70.86,105.32,70.92,106.43,70.92,107.45z"></path>
	</g>
	<g>
		<path class="st0" d="M76.78,33.75h2.09v0.46h-1.68v1.56c0.2-0.09,0.39-0.16,0.6-0.16c0.6,0,1.1,0.5,1.1,1.35    c0,0.66-0.28,1.21-0.72,1.56c-0.32,0.25-0.73,0.38-1.52,0.38v-0.48c0.51,0,0.91-0.04,1.19-0.22c0.37-0.24,0.63-0.71,0.63-1.24    c0-0.54-0.29-0.87-0.72-0.87c-0.26,0-0.46,0.12-0.68,0.27h-0.29V33.75z"></path>
		<path class="st0" d="M77.03,45.41c0.19,0.21,0.4,0.38,0.66,0.38c0.74,0,0.78-1.17,0.8-1.85c-0.24,0.26-0.49,0.41-0.81,0.41    c-0.77,0-1.05-0.78-1.05-1.63c0-0.9,0.38-1.67,1.16-1.67c1.06,0,1.12,1.58,1.12,2.55c0,1.04-0.1,2.66-1.21,2.66    c-0.33,0-0.66-0.16-0.9-0.44L77.03,45.41z M77.77,41.53c-0.5,0-0.71,0.55-0.71,1.17c0,0.58,0.13,1.17,0.68,1.17    c0.29,0,0.54-0.25,0.74-0.49C78.49,41.82,78.16,41.53,77.77,41.53z"></path>
		<path class="st0" d="M76.61,52.3l0.6-3.91l0.41,0.14l-0.52,3.31h1.1v-2.58h0.41v2.58h0.32v0.46h-0.32v1.27h-0.41V52.3H76.61z"></path>
		<path class="st0" d="M77.64,76.64l-0.74,0.36l-0.13-0.46l1.28-0.61v4.72h0.87v0.46h-2.31v-0.46h1.02V76.64z"></path>
		<path class="st0" d="M76.61,87.2l0.6-3.91l0.41,0.14l-0.52,3.31h1.1v-2.58h0.41v2.58h0.32v0.46h-0.32v1.27h-0.41V87.2H76.61z"></path>
		<path class="st0" d="M78.52,91.56c-0.19-0.21-0.39-0.38-0.65-0.38c-0.74,0-0.79,1.17-0.8,1.85c0.24-0.26,0.49-0.41,0.81-0.41    c0.77,0,1.05,0.79,1.05,1.63c0,0.91-0.39,1.67-1.17,1.67c-1.05,0-1.12-1.58-1.12-2.55c0-1.04,0.1-2.67,1.21-2.67    c0.33,0,0.66,0.16,0.9,0.44L78.52,91.56z M77.78,95.44c0.5,0,0.71-0.55,0.71-1.16c0-0.58-0.14-1.17-0.68-1.17    c-0.29,0-0.54,0.25-0.75,0.5C77.07,95.18,77.41,95.44,77.78,95.44z"></path>
		<path class="st0" d="M78.5,98.6h-1.68v-0.46h2.27l-1.85,5.18l-0.37-0.21L78.5,98.6z"></path>
		<path class="st0" d="M77.64,106.13l-0.74,0.36l-0.13-0.46l1.28-0.61v4.72h0.87v0.46h-2.31v-0.46h1.02V106.13z"></path>
		<path class="st0" d="M77.64,113.51l-0.74,0.36l-0.13-0.46l1.28-0.61v4.72h0.87v0.46h-2.31v-0.46h1.02V113.51z"></path>
	</g>
	<g>
		<path class="st0" d="M89.83,40.66h2.09v0.46h-1.68v1.56c0.2-0.09,0.39-0.16,0.6-0.16c0.6,0,1.1,0.5,1.1,1.35    c0,0.66-0.28,1.21-0.72,1.56c-0.32,0.25-0.73,0.38-1.53,0.38v-0.48c0.51,0,0.92-0.04,1.19-0.22c0.37-0.24,0.63-0.71,0.63-1.24    c0-0.54-0.29-0.87-0.72-0.87c-0.26,0-0.46,0.12-0.68,0.27h-0.29V40.66z"></path>
		<path class="st0" d="M90.08,52.32c0.19,0.21,0.4,0.38,0.66,0.38c0.74,0,0.78-1.17,0.8-1.85c-0.24,0.26-0.49,0.41-0.8,0.41    c-0.77,0-1.05-0.78-1.05-1.63c0-0.9,0.38-1.67,1.17-1.67c1.06,0,1.12,1.58,1.12,2.55c0,1.04-0.1,2.66-1.21,2.66    c-0.33,0-0.66-0.16-0.9-0.44L90.08,52.32z M90.83,48.45c-0.5,0-0.71,0.55-0.71,1.17c0,0.58,0.13,1.17,0.68,1.17    c0.29,0,0.54-0.25,0.74-0.49C91.54,48.73,91.21,48.45,90.83,48.45z"></path>
		<path class="st0" d="M90.08,79.84c0.19,0.21,0.4,0.38,0.66,0.38c0.74,0,0.78-1.17,0.8-1.85c-0.24,0.26-0.49,0.41-0.8,0.41    c-0.77,0-1.05-0.78-1.05-1.63c0-0.9,0.38-1.67,1.17-1.67c1.06,0,1.12,1.58,1.12,2.55c0,1.04-0.1,2.66-1.21,2.66    c-0.33,0-0.66-0.16-0.9-0.44L90.08,79.84z M90.83,75.97c-0.5,0-0.71,0.55-0.71,1.17c0,0.58,0.13,1.17,0.68,1.17    c0.29,0,0.54-0.25,0.74-0.49C91.54,76.26,91.21,75.97,90.83,75.97z"></path>
		<path class="st0" d="M91.55,83.39h-1.68v-0.46h2.27l-1.85,5.18l-0.37-0.2L91.55,83.39z"></path>
		<path class="st0" d="M90.7,90.92l-0.74,0.36l-0.13-0.46l1.28-0.61v4.72h0.87v0.46h-2.31v-0.46h1.02V90.92z"></path>
		<path class="st0" d="M90.7,98.3l-0.74,0.36l-0.13-0.47l1.28-0.61v4.72h0.87v0.46h-2.31v-0.46h1.02V98.3z"></path>
	</g>
	<g>
		<path class="st0" d="M84.99,30.77c-0.26,0.27-0.6,0.44-0.95,0.44c-1.05,0-1.23-1.58-1.23-2.6c0-0.95,0.18-2.62,1.19-2.62    c0.46,0,0.79,0.35,1.02,0.81l-0.36,0.27c-0.15-0.33-0.36-0.61-0.68-0.61c-0.68,0-0.74,1.55-0.74,2.16c0,1.74,0.41,2.1,0.81,2.1    c0.17,0,0.39-0.09,0.53-0.24v-1.53h-0.76v-0.46h1.17V30.77z"></path>
		<path class="st0" d="M83.12,33.44h0.41v4.62h1.67v0.46h-2.08V33.44z"></path>
		<path class="st0" d="M85.19,40.82L84.78,46H84.6l-0.68-3.07h-0.01L83.23,46h-0.18l-0.41-5.18l0.41-0.1l0.2,3.82h0.01l0.59-2.67    h0.12l0.59,2.67h0.01l0.2-3.82L85.19,40.82z"></path>
		<path class="st0" d="M85.05,50.73c0,0.64,0.02,2.61-1.13,2.61c-1.16,0-1.13-1.96-1.13-2.61c0-0.84,0.04-2.6,1.13-2.6    C85.06,48.12,85.05,50.06,85.05,50.73z M83.22,50.73c0,1.37,0.13,2.13,0.7,2.13c0.71,0,0.7-1.25,0.7-2.13    c0-0.96,0.02-2.12-0.7-2.12C83.2,48.6,83.22,49.98,83.22,50.73z"></path>
		<path class="st0" d="M84.8,75.61l0.38,0.19l-1.05,2.99v2h-0.41v-2l-1.05-2.99l0.38-0.19l0.88,2.58L84.8,75.61z"></path>
		<path class="st0" d="M83.02,88.27l-0.37-0.21l1.06-2.65l-0.87-2.18l0.38-0.24l0.7,1.9l0.69-1.9l0.38,0.24l-0.87,2.18l1.06,2.65    l-0.37,0.21l-0.89-2.32L83.02,88.27z"></path>
	</g>
	<g>
		<path class="st0" d="M104.19,45.37c-0.26,0.27-0.6,0.44-0.95,0.44c-1.05,0-1.23-1.58-1.23-2.6c0-0.95,0.18-2.62,1.19-2.62    c0.46,0,0.79,0.35,1.02,0.81l-0.36,0.27c-0.15-0.33-0.36-0.61-0.68-0.61c-0.68,0-0.74,1.55-0.74,2.15c0,1.74,0.41,2.1,0.81,2.1    c0.17,0,0.39-0.09,0.53-0.24v-1.53h-0.76V43.1h1.17V45.37z"></path>
		<path class="st0" d="M102.32,48.03h0.41v4.62h1.67v0.46h-2.08V48.03z"></path>
		<path class="st0" d="M104.24,78.09c0,0.64,0.02,2.61-1.13,2.61c-1.16,0-1.13-1.96-1.13-2.61c0-0.84,0.04-2.6,1.13-2.6    C104.26,75.49,104.24,77.42,104.24,78.09z M102.41,78.09c0,1.37,0.13,2.13,0.7,2.13c0.71,0,0.7-1.25,0.7-2.13    c0-0.96,0.02-2.12-0.7-2.12C102.39,75.97,102.41,77.35,102.41,78.09z"></path>
		<path class="st0" d="M104.26,87.25c-0.24,0.48-0.59,0.83-1.06,0.83c-1.06,0-1.22-1.6-1.22-2.6c0-1.01,0.16-2.61,1.22-2.61    c0.46,0,0.78,0.33,1,0.82l-0.35,0.26c-0.13-0.32-0.33-0.6-0.65-0.6c-0.74,0-0.79,1.46-0.79,2.13c0,0.66,0.05,2.12,0.79,2.12    c0.32,0,0.57-0.33,0.72-0.64L104.26,87.25z"></path>
		<path class="st0" d="M103.99,90.2l0.38,0.19l-1.06,2.98v2h-0.41v-2l-1.05-2.98l0.38-0.19l0.88,2.58L103.99,90.2z"></path>
		<path class="st0" d="M102.22,102.86l-0.37-0.21l1.06-2.65l-0.87-2.18l0.38-0.23l0.7,1.9l0.7-1.9l0.38,0.23l-0.87,2.18l1.06,2.65    l-0.37,0.21l-0.89-2.32L102.22,102.86z"></path>
	</g>
	<g>
		<path class="st0" d="M65.79,45.37c-0.26,0.27-0.6,0.44-0.95,0.44c-1.05,0-1.23-1.58-1.23-2.6c0-0.95,0.18-2.62,1.19-2.62    c0.46,0,0.79,0.35,1.02,0.81l-0.36,0.27c-0.15-0.33-0.36-0.61-0.68-0.61c-0.68,0-0.74,1.55-0.74,2.15c0,1.74,0.41,2.1,0.81,2.1    c0.17,0,0.39-0.09,0.53-0.24v-1.53h-0.76V43.1h1.17V45.37z"></path>
		<path class="st0" d="M63.92,48.03h0.41v4.62H66v0.46h-2.08V48.03z"></path>
		<path class="st0" d="M65.85,78.09c0,0.64,0.02,2.61-1.13,2.61c-1.16,0-1.13-1.96-1.13-2.61c0-0.84,0.04-2.6,1.13-2.6    C65.87,75.49,65.85,77.42,65.85,78.09z M64.02,78.09c0,1.37,0.13,2.13,0.7,2.13c0.71,0,0.7-1.25,0.7-2.13    c0-0.96,0.02-2.12-0.7-2.12C64,75.97,64.02,77.35,64.02,78.09z"></path>
		<path class="st0" d="M65.86,87.25c-0.24,0.48-0.59,0.83-1.06,0.83c-1.06,0-1.22-1.6-1.22-2.6c0-1.01,0.16-2.61,1.22-2.61    c0.46,0,0.78,0.33,1,0.82l-0.35,0.26c-0.13-0.32-0.33-0.6-0.65-0.6c-0.74,0-0.79,1.46-0.79,2.13c0,0.66,0.05,2.12,0.79,2.12    c0.32,0,0.57-0.33,0.72-0.64L65.86,87.25z"></path>
		<path class="st0" d="M65.6,90.2l0.38,0.19l-1.05,2.98v2h-0.41v-2l-1.05-2.98l0.38-0.19l0.88,2.58L65.6,90.2z"></path>
	</g>
	<g>
		<path class="st0" d="M98.04,30.77c-0.26,0.27-0.6,0.44-0.95,0.44c-1.05,0-1.23-1.58-1.23-2.6c0-0.95,0.18-2.62,1.19-2.62    c0.46,0,0.79,0.35,1.02,0.81l-0.36,0.27c-0.15-0.33-0.36-0.61-0.68-0.61c-0.68,0-0.74,1.55-0.74,2.16c0,1.74,0.41,2.1,0.81,2.1    c0.17,0,0.39-0.09,0.53-0.24v-1.53h-0.76v-0.46h1.17V30.77z"></path>
		<path class="st0" d="M96.17,33.44h0.41v4.62h1.67v0.46h-2.08V33.44z"></path>
		<path class="st0" d="M98.24,40.82L97.83,46h-0.18l-0.68-3.07h-0.01L96.29,46h-0.18l-0.41-5.18l0.41-0.1l0.19,3.82h0.01l0.59-2.67    h0.12l0.59,2.67h0.01l0.2-3.82L98.24,40.82z"></path>
		<path class="st0" d="M98.1,50.73c0,0.64,0.02,2.61-1.13,2.61c-1.16,0-1.13-1.96-1.13-2.61c0-0.84,0.04-2.6,1.13-2.6    C98.12,48.12,98.1,50.06,98.1,50.73z M96.27,50.73c0,1.37,0.13,2.13,0.7,2.13c0.71,0,0.7-1.25,0.7-2.13c0-0.96,0.02-2.12-0.7-2.12    C96.25,48.6,96.27,49.98,96.27,50.73z"></path>
		<path class="st0" d="M97.85,75.61l0.38,0.19l-1.05,2.99v2h-0.41v-2l-1.05-2.99l0.38-0.19l0.88,2.58L97.85,75.61z"></path>
		<path class="st0" d="M96.07,88.27l-0.37-0.21l1.06-2.65l-0.87-2.18l0.38-0.24l0.7,1.9l0.7-1.9l0.38,0.24l-0.87,2.18l1.06,2.65    l-0.37,0.21l-0.89-2.32L96.07,88.27z"></path>
		<path class="st0" d="M97.56,90.46h0.51l0.12,5.08h-0.43l-0.08-4.23h-0.01l-0.7,2.55l-0.7-2.55h-0.01l-0.08,4.23h-0.43l0.12-5.08    h0.51l0.58,2.16L97.56,90.46z"></path>
		<path class="st0" d="M97.5,98.29h-1.55v-0.46h2.16l-1.72,4.62h1.77v0.46h-2.39L97.5,98.29z"></path>
		<path class="st0" d="M97.56,105.21h0.51l0.12,5.08h-0.43l-0.08-4.23h-0.01l-0.7,2.55l-0.7-2.55h-0.01l-0.08,4.23h-0.43l0.12-5.08    h0.51l0.58,2.15L97.56,105.21z"></path>
		<path class="st0" d="M96.78,113.04H95.9v-0.46h2.15v0.46h-0.86v4.62h-0.41V113.04z"></path>
	</g>
	<g>
		<path class="st0" d="M108.15,4.26V3.8h1.08c0.82,0,1.3,0.45,1.3,2.54c0,1.12-0.05,2.54-1.29,2.54h-1.09V8.42h0.33V4.26H108.15z     M108.89,8.42h0.34c0.49,0,0.87-0.16,0.87-2.08c0-1.93-0.42-2.09-0.78-2.09h-0.43V8.42z"></path>
		<path class="st0" d="M108.1,14.98l0.6-3.91l0.41,0.14l-0.53,3.31h1.1v-2.58h0.41v2.58h0.32v0.46h-0.32v1.27h-0.41v-1.27H108.1z"></path>
		<path class="st0" d="M110,19.34c-0.19-0.21-0.39-0.38-0.65-0.38c-0.74,0-0.79,1.17-0.81,1.85c0.24-0.26,0.49-0.41,0.81-0.41    c0.77,0,1.05,0.79,1.05,1.63c0,0.91-0.39,1.67-1.17,1.67c-1.05,0-1.12-1.58-1.12-2.55c0-1.04,0.1-2.67,1.21-2.67    c0.34,0,0.66,0.16,0.9,0.44L110,19.34z M109.26,23.21c0.5,0,0.72-0.55,0.72-1.16c0-0.58-0.14-1.17-0.68-1.17    c-0.29,0-0.54,0.25-0.75,0.5C108.55,22.96,108.89,23.21,109.26,23.21z"></path>
		<path class="st0" d="M109.98,26.38h-1.68v-0.46h2.27l-1.85,5.18l-0.37-0.21L109.98,26.38z"></path>
		<path class="st0" d="M108.82,35.39h0.11l1.14-2.19l0.33,0.26l-1.11,2.15l1.33,2.61l-0.34,0.26l-1.31-2.63h-0.14v2.53h-0.41v-5.08    h0.41V35.39z"></path>
		<path class="st0" d="M108.46,40.67h0.41v4.62h1.67v0.46h-2.08V40.67z"></path>
		<path class="st0" d="M108.39,48.04h1.98v0.46h-1.57v1.67h1.3v0.46h-1.3v2.03h1.57v0.46h-1.98V48.04z"></path>
		<path class="st0" d="M108.42,75.57h1.1c0.4,0,0.91,0.43,0.91,1.35c0,0.62-0.2,1.22-0.7,1.43l0.84,2.18l-0.37,0.22l-0.91-2.36    h-0.46v2.26h-0.41V75.57z M108.82,77.93h0.6c0.35,0,0.57-0.33,0.57-1.01c0-0.66-0.25-0.89-0.67-0.89h-0.5V77.93z"></path>
		<path class="st0" d="M110.38,87.84l-0.31,0.32l-0.24-0.36c-0.16,0.17-0.36,0.28-0.57,0.28c-0.57,0-1.13-0.7-1.13-2.61    c0-1.77,0.5-2.61,1.13-2.61c0.57,0,1.13,0.69,1.13,2.61c0,0.63-0.05,1.36-0.31,1.92L110.38,87.84z M109.06,86.67l0.31-0.33    l0.43,0.63c0.12-0.46,0.16-0.98,0.16-1.48c0-0.58-0.04-2.15-0.71-2.15c-0.67,0-0.7,1.59-0.7,2.17c0,0.54,0.05,2.09,0.67,2.09    c0.14,0,0.26-0.05,0.35-0.17L109.06,86.67z"></path>
		<path class="st0" d="M110.39,92.86c0,0.82,0.11,2.61-1.13,2.61c-1.25,0-1.14-1.73-1.14-2.61c0-1.19-0.05-2.61,1.14-2.61    C110.55,90.25,110.39,92.29,110.39,92.86z M108.55,92.86c0,2,0.29,2.12,0.71,2.12c0.47,0,0.71-0.24,0.71-2.12    c0-1.96-0.28-2.13-0.71-2.13C108.49,90.72,108.55,91.84,108.55,92.86z"></path>
	</g>
	<g>
		<path class="st0" d="M121.98,18.85v-0.46h1.07c0.82,0,1.3,0.45,1.3,2.54c0,1.12-0.05,2.54-1.29,2.54h-1.08v-0.46h0.33v-4.17    H121.98z M122.71,23.01h0.33c0.5,0,0.87-0.16,0.87-2.08c0-1.94-0.41-2.09-0.77-2.09h-0.43V23.01z"></path>
		<path class="st0" d="M121.92,29.57l0.61-3.91l0.41,0.14l-0.52,3.31h1.1v-2.58h0.41v2.58h0.32v0.46h-0.32v1.27h-0.41v-1.27H121.92z    "></path>
		<path class="st0" d="M123.83,33.93c-0.19-0.21-0.39-0.38-0.65-0.38c-0.74,0-0.79,1.17-0.8,1.85c0.25-0.26,0.49-0.41,0.81-0.41    c0.77,0,1.05,0.79,1.05,1.63c0,0.91-0.39,1.67-1.17,1.67c-1.05,0-1.12-1.58-1.12-2.55c0-1.04,0.1-2.67,1.21-2.67    c0.34,0,0.66,0.16,0.9,0.44L123.83,33.93z M123.09,37.8c0.5,0,0.71-0.55,0.71-1.17c0-0.58-0.14-1.17-0.68-1.17    c-0.29,0-0.54,0.25-0.75,0.49C122.37,37.55,122.71,37.8,123.09,37.8z"></path>
		<path class="st0" d="M123.81,40.97h-1.68v-0.46h2.27l-1.85,5.18l-0.37-0.21L123.81,40.97z"></path>
		<path class="st0" d="M122.65,49.98h0.11l1.13-2.19l0.33,0.26l-1.11,2.15l1.33,2.61l-0.34,0.26l-1.31-2.63h-0.14v2.53h-0.41v-5.08    h0.41V49.98z"></path>
		<path class="st0" d="M124.22,77.95c0,0.82,0.11,2.61-1.13,2.61c-1.24,0-1.13-1.73-1.13-2.61c0-1.2-0.05-2.61,1.13-2.61    C124.37,75.34,124.22,77.38,124.22,77.95z M122.37,77.95c0,2,0.29,2.12,0.71,2.12c0.47,0,0.71-0.24,0.71-2.12    c0-1.96-0.27-2.13-0.71-2.13C122.31,75.82,122.37,76.94,122.37,77.95z"></path>
		<path class="st0" d="M122.42,84.78l1.2-1.54h-1.69v-0.46h2.26v0.46l-1.13,1.44c0.63-0.02,1.18,0.45,1.18,1.29    c0,0.68-0.29,1.2-0.74,1.54c-0.33,0.26-0.73,0.41-1.51,0.41v-0.48c0.67,0,0.96-0.09,1.17-0.24c0.36-0.24,0.65-0.69,0.65-1.22    c0-0.65-0.46-0.85-0.91-0.85c-0.16,0-0.32,0.04-0.47,0.06V84.78z"></path>
		<path class="st0" d="M122.24,90.16h1.1c0.4,0,0.91,0.43,0.91,1.35c0,0.62-0.2,1.22-0.7,1.43l0.84,2.18l-0.37,0.22l-0.92-2.36    h-0.46v2.26h-0.41V90.16z M122.65,92.52h0.6c0.35,0,0.57-0.33,0.57-1.01c0-0.66-0.26-0.89-0.67-0.89h-0.5V92.52z"></path>
		<path class="st0" d="M124.2,102.43l-0.31,0.32l-0.24-0.36c-0.16,0.17-0.36,0.28-0.57,0.28c-0.57,0-1.13-0.7-1.13-2.6    c0-1.78,0.49-2.61,1.13-2.61c0.57,0,1.13,0.69,1.13,2.61c0,0.62-0.06,1.36-0.31,1.92L124.2,102.43z M122.89,101.26l0.31-0.33    l0.43,0.63c0.12-0.47,0.16-0.98,0.16-1.48c0-0.58-0.04-2.15-0.71-2.15c-0.66,0-0.7,1.59-0.7,2.17c0,0.54,0.06,2.09,0.67,2.09    c0.14,0,0.26-0.05,0.36-0.17L122.89,101.26z"></path>
		<path class="st0" d="M124.22,107.45c0,0.81,0.11,2.6-1.13,2.6c-1.24,0-1.13-1.73-1.13-2.6c0-1.2-0.05-2.61,1.13-2.61    C124.37,104.84,124.22,106.88,124.22,107.45z M122.37,107.45c0,1.99,0.29,2.12,0.71,2.12c0.47,0,0.71-0.24,0.71-2.12    c0-1.97-0.27-2.13-0.71-2.13C122.31,105.32,122.37,106.43,122.37,107.45z"></path>
	</g>
	<g>
		<path class="st0" d="M128.23,33.75h2.09v0.46h-1.68v1.56c0.2-0.09,0.39-0.16,0.6-0.16c0.6,0,1.11,0.5,1.11,1.35    c0,0.66-0.28,1.21-0.72,1.56c-0.32,0.25-0.73,0.38-1.53,0.38v-0.48c0.51,0,0.92-0.04,1.19-0.22c0.37-0.24,0.63-0.71,0.63-1.24    c0-0.54-0.29-0.87-0.72-0.87c-0.26,0-0.46,0.12-0.68,0.27h-0.29V33.75z"></path>
		<path class="st0" d="M128.48,45.41c0.19,0.21,0.4,0.38,0.66,0.38c0.74,0,0.78-1.17,0.8-1.85c-0.24,0.26-0.49,0.41-0.81,0.41    c-0.77,0-1.05-0.78-1.05-1.63c0-0.9,0.38-1.67,1.16-1.67c1.06,0,1.12,1.58,1.12,2.55c0,1.04-0.11,2.66-1.22,2.66    c-0.33,0-0.66-0.16-0.9-0.44L128.48,45.41z M129.22,41.53c-0.5,0-0.71,0.55-0.71,1.17c0,0.58,0.13,1.17,0.68,1.17    c0.28,0,0.54-0.25,0.74-0.49C129.94,41.82,129.61,41.53,129.22,41.53z"></path>
		<path class="st0" d="M128.06,52.3l0.6-3.91l0.41,0.14l-0.53,3.31h1.1v-2.58h0.41v2.58h0.32v0.46h-0.32v1.27h-0.41V52.3H128.06z"></path>
		<path class="st0" d="M129.1,76.64l-0.74,0.36l-0.13-0.46l1.28-0.61v4.72h0.87v0.46h-2.31v-0.46h1.03V76.64z"></path>
		<path class="st0" d="M128.06,87.2l0.6-3.91l0.41,0.14l-0.53,3.31h1.1v-2.58h0.41v2.58h0.32v0.46h-0.32v1.27h-0.41V87.2H128.06z"></path>
		<path class="st0" d="M129.97,91.56c-0.19-0.21-0.39-0.38-0.65-0.38c-0.74,0-0.79,1.17-0.81,1.85c0.24-0.26,0.49-0.41,0.81-0.41    c0.77,0,1.05,0.79,1.05,1.63c0,0.91-0.39,1.67-1.17,1.67c-1.05,0-1.12-1.58-1.12-2.55c0-1.04,0.1-2.67,1.21-2.67    c0.33,0,0.66,0.16,0.9,0.44L129.97,91.56z M129.23,95.44c0.5,0,0.71-0.55,0.71-1.16c0-0.58-0.14-1.17-0.68-1.17    c-0.29,0-0.54,0.25-0.75,0.5C128.52,95.18,128.86,95.44,129.23,95.44z"></path>
		<path class="st0" d="M129.95,98.6h-1.68v-0.46h2.27l-1.85,5.18l-0.37-0.21L129.95,98.6z"></path>
		<path class="st0" d="M129.1,106.13l-0.74,0.36l-0.13-0.46l1.28-0.61v4.72h0.87v0.46h-2.31v-0.46h1.03V106.13z"></path>
		<path class="st0" d="M129.1,113.51l-0.74,0.36l-0.13-0.46l1.28-0.61v4.72h0.87v0.46h-2.31v-0.46h1.03V113.51z"></path>
	</g>
	<g>
		<path class="st0" d="M141.28,40.66h2.09v0.46h-1.68v1.56c0.2-0.09,0.39-0.16,0.6-0.16c0.6,0,1.1,0.5,1.1,1.35    c0,0.66-0.28,1.21-0.72,1.56c-0.32,0.25-0.73,0.38-1.53,0.38v-0.48c0.51,0,0.92-0.04,1.19-0.22c0.37-0.24,0.63-0.71,0.63-1.24    c0-0.54-0.29-0.87-0.72-0.87c-0.26,0-0.46,0.12-0.68,0.27h-0.29V40.66z"></path>
		<path class="st0" d="M141.54,52.32c0.19,0.21,0.4,0.38,0.66,0.38c0.74,0,0.78-1.17,0.8-1.85c-0.24,0.26-0.49,0.41-0.8,0.41    c-0.77,0-1.05-0.78-1.05-1.63c0-0.9,0.38-1.67,1.16-1.67c1.06,0,1.12,1.58,1.12,2.55c0,1.04-0.11,2.66-1.22,2.66    c-0.33,0-0.66-0.16-0.9-0.44L141.54,52.32z M142.28,48.45c-0.5,0-0.71,0.55-0.71,1.17c0,0.58,0.13,1.17,0.68,1.17    c0.29,0,0.54-0.25,0.74-0.49C142.99,48.73,142.66,48.45,142.28,48.45z"></path>
		<path class="st0" d="M141.54,79.84c0.19,0.21,0.4,0.38,0.66,0.38c0.74,0,0.78-1.17,0.8-1.85c-0.24,0.26-0.49,0.41-0.8,0.41    c-0.77,0-1.05-0.78-1.05-1.63c0-0.9,0.38-1.67,1.16-1.67c1.06,0,1.12,1.58,1.12,2.55c0,1.04-0.11,2.66-1.22,2.66    c-0.33,0-0.66-0.16-0.9-0.44L141.54,79.84z M142.28,75.97c-0.5,0-0.71,0.55-0.71,1.17c0,0.58,0.13,1.17,0.68,1.17    c0.29,0,0.54-0.25,0.74-0.49C142.99,76.26,142.66,75.97,142.28,75.97z"></path>
		<path class="st0" d="M143,83.39h-1.68v-0.46h2.27l-1.85,5.18l-0.37-0.2L143,83.39z"></path>
		<path class="st0" d="M142.15,90.92l-0.74,0.36l-0.13-0.46l1.28-0.61v4.72h0.87v0.46h-2.31v-0.46h1.03V90.92z"></path>
		<path class="st0" d="M142.15,98.3l-0.74,0.36l-0.13-0.47l1.28-0.61v4.72h0.87v0.46h-2.31v-0.46h1.03V98.3z"></path>
	</g>
	<g>
		<path class="st0" d="M136.44,30.77c-0.26,0.27-0.6,0.44-0.94,0.44c-1.05,0-1.23-1.58-1.23-2.6c0-0.95,0.18-2.62,1.19-2.62    c0.46,0,0.79,0.35,1.02,0.81l-0.36,0.27c-0.15-0.33-0.36-0.61-0.68-0.61c-0.68,0-0.74,1.55-0.74,2.16c0,1.74,0.41,2.1,0.81,2.1    c0.17,0,0.39-0.09,0.53-0.24v-1.53h-0.76v-0.46h1.17V30.77z"></path>
		<path class="st0" d="M134.57,33.44h0.41v4.62h1.67v0.46h-2.08V33.44z"></path>
		<path class="st0" d="M136.64,40.82L136.23,46h-0.18l-0.67-3.07h-0.02L134.69,46h-0.18l-0.41-5.18l0.41-0.1l0.19,3.82h0.01    l0.59-2.67h0.12l0.59,2.67h0.01l0.2-3.82L136.64,40.82z"></path>
		<path class="st0" d="M136.5,50.73c0,0.64,0.02,2.61-1.13,2.61c-1.16,0-1.13-1.96-1.13-2.61c0-0.84,0.04-2.6,1.13-2.6    C136.51,48.12,136.5,50.06,136.5,50.73z M134.67,50.73c0,1.37,0.13,2.13,0.7,2.13c0.71,0,0.7-1.25,0.7-2.13    c0-0.96,0.02-2.12-0.7-2.12C134.65,48.6,134.67,49.98,134.67,50.73z"></path>
		<path class="st0" d="M136.25,75.61l0.38,0.19l-1.06,2.99v2h-0.41v-2l-1.05-2.99l0.38-0.19l0.88,2.58L136.25,75.61z"></path>
		<path class="st0" d="M134.47,88.27l-0.37-0.21l1.06-2.65l-0.87-2.18l0.38-0.24l0.7,1.9l0.7-1.9l0.38,0.24l-0.87,2.18l1.06,2.65    l-0.37,0.21l-0.89-2.32L134.47,88.27z"></path>
		<path class="st0" d="M135.95,90.46h0.51l0.12,5.08h-0.43l-0.08-4.23h-0.01l-0.7,2.55l-0.7-2.55h-0.01l-0.08,4.23h-0.43l0.12-5.08    h0.51l0.59,2.16L135.95,90.46z"></path>
	</g>
	<g>
		<path class="st0" d="M155.64,45.37c-0.26,0.27-0.6,0.44-0.95,0.44c-1.05,0-1.23-1.58-1.23-2.6c0-0.95,0.18-2.62,1.19-2.62    c0.46,0,0.79,0.35,1.02,0.81l-0.36,0.27c-0.15-0.33-0.36-0.61-0.68-0.61c-0.68,0-0.74,1.55-0.74,2.15c0,1.74,0.41,2.1,0.81,2.1    c0.17,0,0.39-0.09,0.53-0.24v-1.53h-0.76V43.1h1.17V45.37z"></path>
		<path class="st0" d="M153.77,48.03h0.41v4.62h1.67v0.46h-2.08V48.03z"></path>
		<path class="st0" d="M155.69,78.09c0,0.64,0.02,2.61-1.13,2.61c-1.16,0-1.13-1.96-1.13-2.61c0-0.84,0.04-2.6,1.13-2.6    C155.71,75.49,155.69,77.42,155.69,78.09z M153.86,78.09c0,1.37,0.13,2.13,0.7,2.13c0.71,0,0.7-1.25,0.7-2.13    c0-0.96,0.02-2.12-0.7-2.12C153.85,75.97,153.86,77.35,153.86,78.09z"></path>
		<path class="st0" d="M155.71,87.25c-0.24,0.48-0.59,0.83-1.06,0.83c-1.06,0-1.22-1.6-1.22-2.6c0-1.01,0.16-2.61,1.22-2.61    c0.46,0,0.78,0.33,0.99,0.82l-0.35,0.26c-0.13-0.32-0.33-0.6-0.65-0.6c-0.75,0-0.79,1.46-0.79,2.13c0,0.66,0.05,2.12,0.79,2.12    c0.32,0,0.57-0.33,0.72-0.64L155.71,87.25z"></path>
		<path class="st0" d="M155.44,90.2l0.38,0.19l-1.06,2.98v2h-0.41v-2l-1.05-2.98l0.38-0.19l0.88,2.58L155.44,90.2z"></path>
	</g>
	<g>
		<path class="st0" d="M117.24,45.37c-0.26,0.27-0.61,0.44-0.95,0.44c-1.05,0-1.23-1.58-1.23-2.6c0-0.95,0.18-2.62,1.19-2.62    c0.46,0,0.79,0.35,1.02,0.81l-0.36,0.27c-0.15-0.33-0.36-0.61-0.68-0.61c-0.68,0-0.74,1.55-0.74,2.15c0,1.74,0.41,2.1,0.81,2.1    c0.17,0,0.39-0.09,0.53-0.24v-1.53h-0.76V43.1h1.17V45.37z"></path>
		<path class="st0" d="M115.37,48.03h0.41v4.62h1.67v0.46h-2.08V48.03z"></path>
		<path class="st0" d="M117.3,78.09c0,0.64,0.02,2.61-1.13,2.61c-1.16,0-1.13-1.96-1.13-2.61c0-0.84,0.05-2.6,1.13-2.6    C117.32,75.49,117.3,77.42,117.3,78.09z M115.47,78.09c0,1.37,0.13,2.13,0.7,2.13c0.71,0,0.7-1.25,0.7-2.13    c0-0.96,0.02-2.12-0.7-2.12C115.45,75.97,115.47,77.35,115.47,78.09z"></path>
		<path class="st0" d="M117.31,87.25c-0.24,0.48-0.59,0.83-1.06,0.83c-1.06,0-1.22-1.6-1.22-2.6c0-1.01,0.16-2.61,1.22-2.61    c0.46,0,0.78,0.33,1,0.82l-0.35,0.26c-0.13-0.32-0.33-0.6-0.65-0.6c-0.74,0-0.79,1.46-0.79,2.13c0,0.66,0.05,2.12,0.79,2.12    c0.32,0,0.57-0.33,0.72-0.64L117.31,87.25z"></path>
	</g>
	<g>
		<path class="st0" d="M149.5,30.77c-0.26,0.27-0.6,0.44-0.95,0.44c-1.05,0-1.23-1.58-1.23-2.6c0-0.95,0.18-2.62,1.19-2.62    c0.46,0,0.79,0.35,1.02,0.81l-0.36,0.27c-0.15-0.33-0.36-0.61-0.68-0.61c-0.68,0-0.74,1.55-0.74,2.16c0,1.74,0.41,2.1,0.81,2.1    c0.17,0,0.39-0.09,0.53-0.24v-1.53h-0.76v-0.46h1.17V30.77z"></path>
		<path class="st0" d="M147.62,33.44h0.41v4.62h1.67v0.46h-2.08V33.44z"></path>
		<path class="st0" d="M149.69,40.82L149.28,46h-0.18l-0.68-3.07h-0.01L147.74,46h-0.18l-0.41-5.18l0.41-0.1l0.2,3.82h0.01    l0.59-2.67h0.12l0.59,2.67h0.01l0.2-3.82L149.69,40.82z"></path>
		<path class="st0" d="M149.55,50.73c0,0.64,0.02,2.61-1.13,2.61c-1.16,0-1.13-1.96-1.13-2.61c0-0.84,0.04-2.6,1.13-2.6    C149.57,48.12,149.55,50.06,149.55,50.73z M147.72,50.73c0,1.37,0.13,2.13,0.7,2.13c0.71,0,0.7-1.25,0.7-2.13    c0-0.96,0.02-2.12-0.7-2.12C147.7,48.6,147.72,49.98,147.72,50.73z"></path>
		<path class="st0" d="M149.3,75.61l0.38,0.19l-1.05,2.99v2h-0.41v-2l-1.05-2.99l0.38-0.19l0.88,2.58L149.3,75.61z"></path>
		<path class="st0" d="M147.53,88.27l-0.37-0.21l1.06-2.65l-0.87-2.18l0.38-0.24l0.69,1.9l0.7-1.9l0.38,0.24l-0.87,2.18l1.06,2.65    l-0.37,0.21l-0.89-2.32L147.53,88.27z"></path>
		<path class="st0" d="M149.01,90.46h0.51l0.12,5.08h-0.43l-0.08-4.23h-0.01l-0.7,2.55l-0.69-2.55h-0.01l-0.08,4.23h-0.43l0.12-5.08    h0.51l0.58,2.16L149.01,90.46z"></path>
		<path class="st0" d="M148.95,98.29h-1.55v-0.46h2.17l-1.72,4.62h1.77v0.46h-2.39L148.95,98.29z"></path>
		<path class="st0" d="M149.01,105.21h0.51l0.12,5.08h-0.43l-0.08-4.23h-0.01l-0.7,2.55l-0.69-2.55h-0.01l-0.08,4.23h-0.43    l0.12-5.08h0.51l0.58,2.15L149.01,105.21z"></path>
		<path class="st0" d="M148.23,113.04h-0.88v-0.46h2.15v0.46h-0.86v4.62h-0.41V113.04z"></path>
	</g>
</g>
<g>
	<path class="st0" d="M9.16,71.41h2.58V57.26H9.16v-2.12h7.55v2.12H14.1v14.15h2.61v2.12H9.16V71.41z"></path>
	<path class="st0" d="M24.44,55.14h2.93l7.13,15.49l0.07-0.07l-0.21-4.76V55.14h2.36v18.39h-2.93l-7.13-15.49l-0.07,0.07l0.21,4.8   v10.62h-2.36V55.14z"></path>
	<path class="st0" d="M43.85,55.14h11.58v2.12h-9.21v5.51h7.73v2.12h-7.73v8.65h-2.36V55.14z"></path>
	<path d="M62.62,68.52l-1.73,5.47l-2.33-0.85l5.79-18h3.04l5.79,18l-2.33,0.85l-1.69-5.47H62.62z M65.87,57.89l-2.61,8.51h5.22   L65.87,57.89z"></path>
	<path d="M90.11,70c-1.48,2.33-3.25,3.85-6.11,3.85c-5.36,0-7.06-4.94-7.06-9.49c0-7.34,3.88-9.53,6.85-9.53   c2.86,0,4.52,1.48,5.82,3.92l-2.15,1.09c-0.78-1.48-1.84-2.79-3.64-2.79c-3.67,0-4.41,4.45-4.41,7.27c0,2.86,0.67,7.3,4.41,7.3   c2.15,0,3.25-1.3,4.34-2.96L90.11,70z"></path>
	<path d="M100.03,57.26h-5.08v-2.12h12.42v2.12h-4.98v16.27h-2.37V57.26z"></path>
	<path d="M115.02,71.41h2.58V57.26h-2.58v-2.12h7.55v2.12h-2.61v14.15h2.61v2.12h-7.55V71.41z"></path>
	<path d="M142.97,64.35c0,1.48-0.11,9.49-6.53,9.49c-2.96,0-6.53-2.12-6.53-9.49c0-7.34,3.49-9.53,6.53-9.53   C139.37,54.82,142.97,56.94,142.97,64.35z M132.38,64.35c0,2.68,0.49,7.27,4.06,7.27c3.56,0,4.06-4.59,4.06-7.27   c0-2.72-0.49-7.31-4.06-7.31C132.88,57.05,132.38,61.64,132.38,64.35z"></path>
	<path d="M147.95,55.14h2.93L158,70.63l0.07-0.07l-0.21-4.76V55.14h2.36v18.39h-2.93l-7.13-15.49l-0.07,0.07l0.21,4.8v10.62h-2.37   V55.14z"></path>
</g>
</svg>
