<svg width="204" height="33" viewBox="0 0 204 33" fill="none" xmlns="http://www.w3.org/2000/svg">
<path d="M175.359 14.6992H177.593V19.3202H175.85C174.817 19.3202 174.356 19.7816 174.356 20.8142V31.9676H169.186V20.9533C169.186 16.6033 171.5 14.6992 175.359 14.6992Z" fill="#141B31"/>
<path d="M36.4507 6.78125H41.6209V31.9954H36.4507V6.78125Z" fill="#141B31"/>
<path d="M44.2369 6.78125H49.4072V12.0614H44.2369V6.78125ZM44.2369 14.6977H49.4072V31.9954H44.2369V14.6977Z" fill="#141B31"/>
<path d="M59.3592 14.2949C64.068 14.2949 66.9168 17.1803 66.9168 21.8013V32.0027H61.7466V21.9917C61.7466 20.1389 60.8751 19.0844 59.3225 19.0844C57.77 19.0844 56.8985 20.1169 56.8985 21.9917V32.0027H51.7576V21.8013C51.7576 17.1803 54.6429 14.2949 59.3152 14.2949H59.3445H59.3592Z" fill="#141B31"/>
<path d="M74.5023 24.8991V31.9954H69.332V6.78125H74.5023V21.2814L79.2331 14.727H84.9453L79.094 22.9145L85.1064 32.0247H79.0134L74.5243 24.9284L74.495 24.8991H74.5023Z" fill="#141B31"/>
<path d="M90.5539 30.4502V32.0247H85.9548V6.78125H91.1251V11.4023C91.1251 12.8449 91.0958 14.3975 91.0152 15.8329C92.187 14.8515 93.842 14.3609 95.5557 14.3609C100.235 14.3609 104.175 18.0079 104.175 23.3392C104.175 28.6706 100.228 32.3176 95.5557 32.3176C93.6223 32.3176 91.7476 31.6658 90.5758 30.4135L90.5465 30.4428L90.5539 30.4502ZM94.8526 27.6453C97.2474 27.6453 98.9903 25.9829 98.9903 23.3759C98.9903 20.7688 97.2254 19.1064 94.8526 19.1064C92.4799 19.1064 90.7736 20.7688 90.7736 23.3759C90.7736 25.9829 92.5165 27.6453 94.8526 27.6453Z" fill="#141B31"/>
<path d="M112.063 14.6992H114.297V19.3202H112.554C111.521 19.3202 111.06 19.7816 111.06 20.8142V31.9676H105.889V20.9533C105.889 16.6033 108.204 14.6992 112.063 14.6992Z" fill="#141B31"/>
<path d="M114.678 23.3778C114.678 18.0464 118.786 14.2676 123.898 14.2676C129.009 14.2676 133.118 18.0464 133.118 23.3778C133.118 28.7091 129.009 32.488 123.898 32.488C118.786 32.488 114.678 28.7091 114.678 23.3778ZM123.898 27.6765C126.212 27.6765 127.977 25.9336 127.977 23.3778C127.977 20.8219 126.212 19.079 123.898 19.079C121.583 19.079 119.819 20.8219 119.819 23.3778C119.819 25.9336 121.583 27.6765 123.898 27.6765Z" fill="#141B31"/>
<path d="M140.165 24.8991V31.9954H134.994V6.78125H140.165V21.2814L144.895 14.727H150.608L144.764 22.9145L150.776 32.0247H144.683L140.194 24.9284L140.165 24.8991Z" fill="#141B31"/>
<path d="M149.873 23.4285C149.873 17.9873 153.791 14.2891 158.822 14.2891C163.553 14.2891 167.881 17.526 167.17 24.7614H154.743C155.233 26.8266 156.889 28.0495 159.173 28.0495C160.997 28.0495 162.571 27.2586 163.853 25.6548L167.17 28.4304C165.237 30.9862 162.52 32.3996 159.093 32.3996C153.571 32.3996 149.902 28.672 149.902 23.3993L149.873 23.4285ZM162.41 21.1949C162.029 19.43 160.726 18.4487 158.793 18.4487C156.859 18.4487 155.365 19.5399 154.823 21.1949H162.41Z" fill="#141B31"/>
<path d="M29.465 12.6708C28.7986 11.9531 27.8172 11.5723 26.6821 11.5723C26.4405 11.5723 26.1915 11.5942 25.9425 11.6309C25.9278 11.6894 25.9205 11.7407 25.8985 11.7993L25.1955 14.0695L25.8693 13.9157C26.1695 13.8425 26.4478 13.8132 26.7041 13.8132C27.2021 13.8132 27.5902 13.945 27.8319 14.2013C28.1907 14.5895 28.242 15.3071 27.971 16.1713L25.1076 25.4133C24.8 26.402 23.599 27.5224 22.5884 27.7568L10.6734 30.5176C10.3731 30.5909 10.0949 30.6202 9.83854 30.6202C9.34056 30.6202 8.95242 30.4884 8.71075 30.232C8.35191 29.8439 8.30065 29.1262 8.57161 28.2621L11.435 19.0201C11.7426 18.0314 12.9436 16.911 13.9542 16.6766L18.0406 15.7319L18.8096 13.2566L13.4489 14.5016C11.662 14.919 9.83854 16.6107 9.29662 18.361L6.43321 27.603C5.92057 29.258 6.15492 30.774 7.07033 31.7626C7.73675 32.4803 8.71808 32.8611 9.84586 32.8611C10.2706 32.8611 10.71 32.8098 11.1714 32.7L23.0864 29.9391C24.8733 29.5217 26.6968 27.83 27.2387 26.0797L30.1021 16.8377C30.6147 15.1827 30.3804 13.6667 29.465 12.6781V12.6708Z" fill="#141B31"/>
<path d="M4.47748 26.9876L5.18052 24.7174L4.50677 24.8712C4.20652 24.9371 3.92823 24.9737 3.67192 24.9737C3.17393 24.9737 2.7858 24.8419 2.54413 24.5856C2.18529 24.1974 2.13402 23.4797 2.40498 22.6156L5.2684 13.3736C5.57597 12.3849 6.777 11.2645 7.78761 11.0301L19.7026 8.26924C20.0029 8.19601 20.2812 8.16671 20.5375 8.16671C21.0355 8.16671 21.4236 8.29853 21.6653 8.55485C22.0241 8.94298 22.0754 9.66067 21.8044 10.5248L18.941 19.7668C18.6334 20.7555 17.4324 21.8759 16.4218 22.1103L12.3354 23.055L11.5664 25.5303L16.9271 24.2853C18.714 23.8679 20.5375 22.1762 21.0794 20.4259L23.9428 11.1839C24.4555 9.52885 24.2211 8.01292 23.3057 7.02428C22.6393 6.30659 21.6579 5.92578 20.5228 5.92578C20.0981 5.92578 19.6587 5.97704 19.1973 6.08689L7.2823 8.8551C5.49542 9.27253 3.67192 10.9642 3.12999 12.7145L0.26658 21.9565C-0.246052 23.6116 -0.011706 25.1275 0.903707 26.1161C1.57013 26.8338 2.55145 27.2146 3.67924 27.2146C3.92091 27.2146 4.1699 27.1927 4.42622 27.156C4.44086 27.0974 4.44819 27.0462 4.47016 26.9876H4.47748Z" fill="#141B31"/>
<rect x="182.912" y="0.609375" width="20.2052" height="13.8246" rx="2" fill="#141B31"/>
<path d="M196.597 5.20433C196.328 5.20433 196.094 5.10862 195.895 4.9172C195.697 4.71869 195.598 4.4812 195.598 4.2047C195.598 3.92821 195.697 3.69426 195.895 3.50284C196.094 3.30433 196.328 3.20508 196.597 3.20508C196.881 3.20508 197.118 3.30433 197.31 3.50284C197.508 3.69426 197.607 3.92821 197.607 4.2047C197.607 4.4812 197.508 4.71869 197.31 4.9172C197.118 5.10862 196.881 5.20433 196.597 5.20433ZM195.8 11.2446V5.92746H197.405V11.2446H195.8Z" fill="#141B31"/>
<path d="M187.153 11.2437L190.386 3.69336H191.917L195.15 11.2437H193.385L192.715 9.64857H189.589L188.919 11.2437H187.153ZM191.152 5.91593L190.195 8.18104H192.098L191.152 5.91593Z" fill="#141B31"/>
</svg>
