<svg width="159" height="30" viewBox="0 0 159 30" fill="none" xmlns="http://www.w3.org/2000/svg">
<path d="M34.4526 25.8211V20.1416L40.3953 25.8211H42.8377L36.4793 19.6957L42.2845 14.0391H39.912L34.4526 19.4374V8.54712H32.5864V25.8211H34.4526ZM46.3157 25.8211V8.54712H44.4503V25.8211H46.3157ZM54.6586 25.9857C55.4884 25.9857 56.2983 25.845 57.0891 25.5628C57.8799 25.2815 58.5293 24.8984 59.0355 24.4128L58.414 23.0282C57.2775 23.9518 56.0336 24.4128 54.6817 24.4128C53.4068 24.4128 52.4356 24.0297 51.768 23.2627C51.0995 22.4965 50.7578 21.3616 50.7427 19.8602H59.243V19.5081C59.243 17.7087 58.8051 16.2963 57.93 15.2711C57.0549 14.2466 55.8492 13.7339 54.3129 13.7339C53.2534 13.7339 52.3092 13.9922 51.4795 14.5089C50.6505 15.0247 50.0059 15.7487 49.5449 16.6794C49.0839 17.6109 48.8535 18.6783 48.8535 19.8833C48.8535 21.7764 49.3685 23.2667 50.3969 24.3548C51.4262 25.442 52.8465 25.9857 54.6586 25.9857ZM57.5612 18.6156H50.8118C50.9811 17.5362 51.3682 16.6993 51.9754 16.1048C52.5818 15.5103 53.3687 15.213 54.3359 15.213C55.304 15.213 56.0598 15.5024 56.6051 16.081C57.1503 16.6604 57.469 17.5052 57.5612 18.6156ZM63.7852 11.1755V9.01684H61.5042V11.1755H63.7852ZM63.3974 25.8211V14.0161H61.5312V25.8211H63.3974ZM67.8927 25.8211V19.0622C67.8927 17.9193 68.2154 17.0125 68.8608 16.3393C69.5054 15.6661 70.3653 15.3299 71.4407 15.3299C72.3618 15.3299 73.0374 15.5842 73.4674 16.0929C73.8974 16.6016 74.1128 17.4035 74.1128 18.4987V25.8211H75.9789V18.4049C75.9789 15.2909 74.5888 13.7339 71.8095 13.7339C70.9034 13.7339 70.0967 13.9414 69.3901 14.3563C68.6843 14.7703 68.1542 15.3617 67.8005 16.1279L67.6169 14.0161H65.8429C65.9653 15.0016 66.0273 16.1048 66.0273 17.3248V25.8211H67.8927ZM85.1238 26.0326C87.3818 26.0326 89.132 25.5668 90.3766 24.6361C91.6205 23.7054 92.242 22.4258 92.242 20.7989C92.242 19.9381 92.0655 19.1989 91.7127 18.5806C91.359 17.963 90.7565 17.4226 89.9037 16.9616C89.0517 16.4998 87.881 16.1048 86.3907 15.7758C85.4696 15.5723 84.7781 15.3807 84.3179 15.2011C83.8569 15.0207 83.5422 14.8371 83.3729 14.6495C83.2044 14.462 83.1202 14.2267 83.1202 13.9454C83.1202 13.4287 83.3578 13.0186 83.8339 12.7134C84.31 12.4082 84.9394 12.2556 85.7231 12.2556C86.5219 12.2556 87.3198 12.3923 88.1186 12.6665C88.9174 12.9399 89.6772 13.335 90.3997 13.8516L91.7357 10.7296C91.1054 10.182 90.2343 9.7401 89.1208 9.40391C88.0073 9.06771 86.8597 8.89921 85.677 8.89921C84.3561 8.89921 83.1814 9.1297 82.1521 9.59148C81.1236 10.0533 80.3249 10.6946 79.7566 11.5165C79.1883 12.3375 78.9046 13.2571 78.9046 14.2736C78.9046 15.1662 79.077 15.9244 79.4228 16.5507C79.7685 17.1762 80.371 17.7198 81.2309 18.1816C82.0909 18.6434 83.2966 19.0304 84.8472 19.3436C86.076 19.6098 86.9129 19.8793 87.3588 20.1535C87.8039 20.4269 88.0264 20.775 88.0264 21.1978C88.0264 21.6668 87.7808 22.0308 87.2896 22.2891C86.7977 22.5474 86.0919 22.6762 85.1699 22.6762C84.2639 22.6762 83.3618 22.5394 82.4637 22.2652C81.5647 21.9918 80.7167 21.5968 79.9179 21.0802L78.5588 24.2022C79.3115 24.7649 80.2867 25.2107 81.4845 25.5398C82.6822 25.868 83.8951 26.0326 85.1238 26.0326ZM102.344 25.8211V12.6777H107.227V9.11063H93.0829V12.6777H97.9669V25.8211H102.344ZM109.373 25.8211L110.824 22.371H118.104L119.555 25.8211H123.817L116.123 9.11063H112.713L105.043 25.8211H109.373ZM116.71 19.0622H112.241L114.476 13.7808L116.71 19.0622ZM129.614 25.8211V19.3197H131.18C132.087 19.3197 132.663 19.6329 132.908 20.2592L135.028 25.8211H139.612L137.677 20.8457C137.462 20.2663 137.17 19.8054 136.801 19.4612C136.433 19.1163 136.018 18.8977 135.557 18.8039C136.633 18.4598 137.466 17.8764 138.057 17.0554C138.648 16.2336 138.944 15.2599 138.944 14.1329C138.944 12.5211 138.445 11.2812 137.447 10.4133C136.448 9.54458 134.959 9.11063 132.978 9.11063H125.353V25.8211H129.614ZM132.275 16.0341H129.557V12.4432H132.275C133.212 12.4432 133.884 12.5839 134.291 12.866C134.697 13.1474 134.901 13.6092 134.901 14.2506C134.901 14.861 134.693 15.3108 134.279 15.6001C133.865 15.8894 133.196 16.0341 132.275 16.0341ZM146.461 25.8211V18.2404L153.027 25.8211H158.164L150.654 17.0435L157.91 9.11063H152.843L146.461 16.2924V9.11063H142.13V25.8211H146.461Z" fill="#2F2F2F"/>
<path fill-rule="evenodd" clip-rule="evenodd" d="M3.5384 11.9957L11.7081 16.9043C11.7542 16.9321 11.7955 16.9647 11.8313 17.0013L12.3725 17.3057C12.7397 17.5123 12.9782 17.8851 13.0155 18.3L13.0211 18.4136V28.7285C13.0211 28.9669 12.9535 29.2006 12.8271 29.4024C12.4774 29.9628 11.7613 30.1559 11.1819 29.8666L11.0754 29.807L3.44541 25.0382C3.10683 24.8268 2.88985 24.4707 2.85329 24.0781L2.84772 23.9597L2.84693 17.6427L0.300413 16.0595C0.00236582 15.8743 -0.0898301 15.4824 0.0961514 15.1836C0.113637 15.1558 0.133507 15.1288 0.154966 15.1041L2.73009 12.1252C2.93197 11.8908 3.27373 11.8367 3.5384 11.9957ZM24.1855 11.9957C24.451 11.8367 24.792 11.8908 24.9946 12.1252L27.5698 15.1041C27.5912 15.1288 27.6111 15.1558 27.6286 15.1836C27.8138 15.4824 27.7224 15.8743 27.4243 16.0595L24.8778 17.6427L24.877 23.9597L24.8714 24.0781C24.8349 24.4707 24.6171 24.8268 24.2793 25.0382L16.6493 29.807L16.542 29.8666C15.9626 30.1559 15.2473 29.9628 14.8968 29.4024C14.7704 29.2006 14.7037 28.9669 14.7037 28.7285V18.4136L14.7084 18.3C14.7458 17.8851 14.985 17.5123 15.3522 17.3057L15.8927 17.0013C15.9292 16.9647 15.9706 16.9321 16.0166 16.9043L24.1855 11.9957Z" fill="#2F2F2F"/>
<path fill-rule="evenodd" clip-rule="evenodd" d="M11.5086 0.768008C14.8319 2.63466 16.7223 4.86534 17.1796 7.45849C17.6066 9.88022 16.7089 12.1901 14.4874 14.3888C14.5225 13.5764 14.464 12.6223 14.3132 11.5246C14.1582 10.389 13.7873 8.91291 13.2034 7.08863C13.096 6.75408 12.7383 6.57019 12.4036 6.67682C12.0691 6.78424 11.8852 7.1419 11.9918 7.47659C12.5563 9.2365 12.9098 10.6462 13.0539 11.6966C13.2065 12.8141 13.2568 13.7536 13.2072 14.5112C10.4666 13.2077 8.88744 11.3692 8.4687 8.99445C8.01146 6.4013 9.02415 3.65872 11.5086 0.768008Z" fill="#8CB900"/>
</svg>
