<svg xmlns="http://www.w3.org/2000/svg" width="308.102" height="58.8" viewBox="0 0 308.102 58.8"><g transform="translate(-232.034 -318.932)"><path d="M4.756-43.706a4.892,4.892,0,0,1,1.886-3.772,13.045,13.045,0,0,1,5.125-2.542,27.73,27.73,0,0,1,7.421-.9,23.793,23.793,0,0,1,9.881,1.845,14.01,14.01,0,0,1,6.191,5.166,13.88,13.88,0,0,1,2.132,7.667,16.989,16.989,0,0,1-2.46,8.651A36.781,36.781,0,0,1,26.9-18.614L14.842-8.036H36.9a6.583,6.583,0,0,1,.779,1.64,6.972,6.972,0,0,1,.369,2.3A4.153,4.153,0,0,1,37.023-.984,3.58,3.58,0,0,1,34.44,0H5.74A6.013,6.013,0,0,1,3.731-2.3a6.87,6.87,0,0,1-.7-3.116A6.92,6.92,0,0,1,3.854-8.9a10.48,10.48,0,0,1,1.968-2.5L18.86-23.37A35.569,35.569,0,0,0,25.338-30.3a10.213,10.213,0,0,0,1.722-5.453A6.315,6.315,0,0,0,24.805-40.8q-2.255-1.927-6.6-1.927a15.616,15.616,0,0,0-6.15,1.148A26.268,26.268,0,0,0,7.544-39.2,6.17,6.17,0,0,1,5.576-41,4.533,4.533,0,0,1,4.756-43.706Zm54.776-6.15L57.4-43.378l-1.066,13.2a26.552,26.552,0,0,1,3.485-1.107,19.124,19.124,0,0,1,4.715-.533,19.132,19.132,0,0,1,9.1,2.009A14.512,14.512,0,0,1,79.5-24.19a16.713,16.713,0,0,1,2.091,8.528,17.09,17.09,0,0,1-2.132,8.487A15.179,15.179,0,0,1,72.98-1.107,23.541,23.541,0,0,1,62.074,1.148,31.521,31.521,0,0,1,53.587.123a14.8,14.8,0,0,1-5.7-2.788,5.171,5.171,0,0,1-2.05-3.977,4.521,4.521,0,0,1,1.107-3.075,7.168,7.168,0,0,1,2.337-1.845,28.167,28.167,0,0,0,5,3.116,16.222,16.222,0,0,0,7.3,1.476q4.838,0,7.3-2.46a8.344,8.344,0,0,0,2.46-6.15,7.715,7.715,0,0,0-2.419-5.986,9.652,9.652,0,0,0-6.765-2.214,13.474,13.474,0,0,0-4.51.7A27.65,27.65,0,0,0,53.71-21.32a7.866,7.866,0,0,1-4.879-1.763,5.7,5.7,0,0,1-1.845-4.551q0-.41.041-.984t.123-1.476L48.3-44.2a6.88,6.88,0,0,1,1.64-4.141,5.184,5.184,0,0,1,4.018-1.517Zm-4.51,8.282v-8.282H78.31a5.8,5.8,0,0,1,.738,1.64,7.77,7.77,0,0,1,.328,2.3,4.872,4.872,0,0,1-.943,3.239,3.408,3.408,0,0,1-2.747,1.107Z" transform="translate(229 370)" fill="#fff"/><path d="M11.88-7.6H8.532q-.972-1.44-2.07-3.132T4.284-14.184Q3.2-15.948,2.268-17.64T.612-20.772a2.542,2.542,0,0,1,.72-.882,1.975,1.975,0,0,1,1.3-.414A2.091,2.091,0,0,1,4-21.654,4.515,4.515,0,0,1,5-20.3q.324.612.864,1.548T7-16.74q.594,1.08,1.206,2.16t1.1,1.98q.486.9.81,1.44h.18q1.116-1.944,2.034-3.672t1.764-3.42q.846-1.692,1.746-3.456a2.671,2.671,0,0,1,.756-.27,3.908,3.908,0,0,1,.792-.09,1.96,1.96,0,0,1,1.314.414,1.453,1.453,0,0,1,.486,1.17,4.443,4.443,0,0,1-.486,1.458q-.486,1.062-1.422,2.7t-2.286,3.852Q13.644-10.26,11.88-7.6ZM8.352-9.18H12.06V-.072q-.216.072-.7.18a4.55,4.55,0,0,1-.99.108A2.321,2.321,0,0,1,8.82-.2a1.669,1.669,0,0,1-.468-1.314Zm15.7,2.808-.18-2.7,10.224-1.44A4.362,4.362,0,0,0,32.9-13.338a4.025,4.025,0,0,0-3.06-1.134,4.368,4.368,0,0,0-3.348,1.44,5.95,5.95,0,0,0-1.368,4.1L25.2-7.56a5.537,5.537,0,0,0,1.836,3.834A6.184,6.184,0,0,0,31.1-2.448a7.905,7.905,0,0,0,2.772-.468,8.727,8.727,0,0,0,2.016-1.008,2.015,2.015,0,0,1,.7.684,1.733,1.733,0,0,1,.27.936,1.855,1.855,0,0,1-.792,1.44A5.651,5.651,0,0,1,33.93.144,11.819,11.819,0,0,1,30.888.5a10.893,10.893,0,0,1-4.86-1.026,7.392,7.392,0,0,1-3.24-3.06,9.981,9.981,0,0,1-1.152-4.986,10.432,10.432,0,0,1,.63-3.762,7.786,7.786,0,0,1,1.746-2.754,7.391,7.391,0,0,1,2.628-1.692,9.024,9.024,0,0,1,3.24-.576,8.236,8.236,0,0,1,4.014.954,6.865,6.865,0,0,1,2.718,2.646A7.593,7.593,0,0,1,37.584-9.9a1.75,1.75,0,0,1-.432,1.314,2.135,2.135,0,0,1-1.224.522Zm23.76,4a7.92,7.92,0,0,0,2.214-.27,6.464,6.464,0,0,0,1.35-.522V-7.812l-4,.4a5.154,5.154,0,0,0-2.5.738,2,2,0,0,0-.846,1.746,2.194,2.194,0,0,0,.936,1.872A4.823,4.823,0,0,0,47.808-2.376ZM47.7-17.352a8.712,8.712,0,0,1,5.31,1.458,5.342,5.342,0,0,1,1.962,4.59v8.388a2.08,2.08,0,0,1-.36,1.3A3.218,3.218,0,0,1,53.6-.792a9.641,9.641,0,0,1-2.43.918A13.749,13.749,0,0,1,47.808.5a9.52,9.52,0,0,1-5.454-1.35,4.518,4.518,0,0,1-1.962-3.978A4.469,4.469,0,0,1,41.94-8.478a7.859,7.859,0,0,1,4.392-1.53l5.04-.5v-.828a2.639,2.639,0,0,0-1.044-2.34,4.939,4.939,0,0,0-2.844-.72,9.861,9.861,0,0,0-2.79.4,15.655,15.655,0,0,0-2.394.9,3.055,3.055,0,0,1-.576-.7,1.668,1.668,0,0,1-.252-.882A1.824,1.824,0,0,1,42.7-16.38a9.967,9.967,0,0,1,2.322-.72A14.208,14.208,0,0,1,47.7-17.352Zm15.84,4.1v5.292H59.832V-13.32a2.483,2.483,0,0,1,.378-1.422A4.066,4.066,0,0,1,61.344-15.8a9.306,9.306,0,0,1,2.646-1.08,14.023,14.023,0,0,1,3.582-.432q3.132,0,3.132,1.764a2.383,2.383,0,0,1-.126.792,3.235,3.235,0,0,1-.306.648q-.36-.072-.918-.144a8.853,8.853,0,0,0-1.134-.072,10.909,10.909,0,0,0-2.682.306A7.63,7.63,0,0,0,63.54-13.248ZM59.832-9.5l3.708.324V-.072q-.252.072-.7.18a4.242,4.242,0,0,1-.99.108,2.421,2.421,0,0,1-1.512-.4,1.549,1.549,0,0,1-.5-1.3Zm26.5,4.86a4.5,4.5,0,0,1-1.782,3.78A8.36,8.36,0,0,1,79.38.5,10.667,10.667,0,0,1,74.772-.36q-1.8-.864-1.8-2.088a1.888,1.888,0,0,1,.27-.99,2.171,2.171,0,0,1,.738-.738A14.446,14.446,0,0,0,76.3-2.988a7.752,7.752,0,0,0,2.97.54q3.384,0,3.384-2.16A1.984,1.984,0,0,0,82.08-6.1a3.757,3.757,0,0,0-1.728-.846L77.832-7.6a6.989,6.989,0,0,1-3.564-1.728,4.212,4.212,0,0,1-1.152-3.06,4.446,4.446,0,0,1,1.71-3.528,7.556,7.556,0,0,1,4.986-1.44,11.975,11.975,0,0,1,3.006.342,5.27,5.27,0,0,1,2.052.954,1.765,1.765,0,0,1,.738,1.368,1.893,1.893,0,0,1-.252.972,1.68,1.68,0,0,1-.648.648,12.725,12.725,0,0,0-1.152-.576,9.041,9.041,0,0,0-1.638-.54,8.224,8.224,0,0,0-1.89-.216,4.693,4.693,0,0,0-2.394.522,1.646,1.646,0,0,0-.882,1.494,1.685,1.685,0,0,0,.5,1.206,3.273,3.273,0,0,0,1.692.774l2.124.54a8.056,8.056,0,0,1,3.978,1.89A4.5,4.5,0,0,1,86.328-4.644ZM18.612,21.576a10.12,10.12,0,0,1-1.044,4.716,7.471,7.471,0,0,1-2.952,3.114,8.868,8.868,0,0,1-4.5,1.1,8.868,8.868,0,0,1-4.5-1.1,7.5,7.5,0,0,1-2.952-3.1A10.093,10.093,0,0,1,1.62,21.576a9.952,9.952,0,0,1,1.062-4.734,7.581,7.581,0,0,1,2.988-3.1,8.819,8.819,0,0,1,4.446-1.1,8.793,8.793,0,0,1,4.464,1.1,7.614,7.614,0,0,1,2.97,3.1A9.952,9.952,0,0,1,18.612,21.576Zm-8.5-5.94A4.188,4.188,0,0,0,6.678,17.22,6.751,6.751,0,0,0,5.4,21.576,6.874,6.874,0,0,0,6.642,25.95a4.183,4.183,0,0,0,3.474,1.566,4.164,4.164,0,0,0,3.474-1.584,6.889,6.889,0,0,0,1.242-4.356,6.819,6.819,0,0,0-1.26-4.356A4.176,4.176,0,0,0,10.116,15.636ZM25.74,17.112V14.2h7.416a1.847,1.847,0,0,1,.27.576,2.836,2.836,0,0,1,.126.864,1.573,1.573,0,0,1-.342,1.116,1.3,1.3,0,0,1-.99.36Zm.612-4.9v4.428h-3.6V12.036a6.586,6.586,0,0,1,.864-3.564,5.109,5.109,0,0,1,2.412-2.016,9.268,9.268,0,0,1,3.6-.648,7.953,7.953,0,0,1,3.384.576A1.76,1.76,0,0,1,34.2,7.968a1.9,1.9,0,0,1-.2.864,2.606,2.606,0,0,1-.486.684,6.646,6.646,0,0,0-1.566-.522A8.769,8.769,0,0,0,30.1,8.8a4.217,4.217,0,0,0-2.88.792A3.428,3.428,0,0,0,26.352,12.216Zm-3.6,3.024H26.46V29.928q-.252.072-.7.18a4.242,4.242,0,0,1-.99.108,2.421,2.421,0,0,1-1.512-.4,1.549,1.549,0,0,1-.5-1.3Zm22.284.9h3.708V29.712a6.479,6.479,0,0,1-.666.2,4.074,4.074,0,0,1-1.026.126,1.939,1.939,0,0,1-1.458-.576,2.033,2.033,0,0,1-.558-1.476Zm3.708,5.724-3.708-.036V10.164a2.019,2.019,0,0,1,.558-1.494,1.972,1.972,0,0,1,1.458-.558,4.719,4.719,0,0,1,1.026.108,2.5,2.5,0,0,1,.666.216Zm-1.692-1.548v-3.06H57.924a2.487,2.487,0,0,1,.27.612,2.836,2.836,0,0,1,.126.864,1.728,1.728,0,0,1-.36,1.17,1.265,1.265,0,0,1-1.008.414Zm0,9.72v-3.1H59.184a2.487,2.487,0,0,1,.27.612,2.836,2.836,0,0,1,.126.864,1.8,1.8,0,0,1-.36,1.188,1.24,1.24,0,0,1-1.008.432Zm0-18.828v-3.1H59a2.487,2.487,0,0,1,.27.612,2.836,2.836,0,0,1,.126.864,1.8,1.8,0,0,1-.36,1.188,1.24,1.24,0,0,1-1.008.432ZM69.12,20.172l.684-.216q1.44-1.836,2.7-3.474T75.1,12.936a1.516,1.516,0,0,1,.27-.036h.2a2.521,2.521,0,0,1,1.548.432,1.368,1.368,0,0,1,.576,1.152,2.113,2.113,0,0,1-.234.99,6.71,6.71,0,0,1-.81,1.134q-1.116,1.368-2.3,2.79T72,22.152l-1.152.792q-1.3,1.764-2.646,3.618t-2.646,3.654H64.98a2.429,2.429,0,0,1-1.6-.468A1.448,1.448,0,0,1,62.82,28.6a1.829,1.829,0,0,1,.2-.828,6.368,6.368,0,0,1,.81-1.116q1.26-1.656,2.628-3.258T69.12,20.172Zm2.232.18.828.5q1.44,1.908,2.916,3.78t2.916,3.78a1.993,1.993,0,0,1-.594,1.35,2.121,2.121,0,0,1-2.61.072,7.039,7.039,0,0,1-1.08-1.17q-1.008-1.44-2.124-3.024t-2.16-2.988l-.828-.72q-1.548-1.872-2.952-3.6T62.82,14.808a2.671,2.671,0,0,1,.684-1.4,1.71,1.71,0,0,1,1.26-.5,1.743,1.743,0,0,1,1.188.378,6.824,6.824,0,0,1,.9.99q1.044,1.4,2.16,2.988T71.352,20.352ZM89.244,30.468a9.133,9.133,0,0,0,4.3-.99A6.959,6.959,0,0,0,96.5,26.49,10.539,10.539,0,0,0,97.56,21.5a9.793,9.793,0,0,0-1.152-5.04,7.092,7.092,0,0,0-3.15-2.88,10.439,10.439,0,0,0-4.482-.936,11.157,11.157,0,0,0-3.294.45,11.025,11.025,0,0,0-2.466,1.062,3.243,3.243,0,0,0-1.062.954,2.3,2.3,0,0,0-.306,1.242V28.2h3.708V16.572a8.077,8.077,0,0,1,1.44-.648,6.048,6.048,0,0,1,1.98-.288,5.555,5.555,0,0,1,2.52.576,4.218,4.218,0,0,1,1.836,1.854,7.317,7.317,0,0,1,.684,3.438A6.353,6.353,0,0,1,92.43,26.04,4.931,4.931,0,0,1,88.7,27.48a5.628,5.628,0,0,1-2.43-.486,7.116,7.116,0,0,1-1.71-1.1v3.276a6.709,6.709,0,0,0,1.944.9A9.082,9.082,0,0,0,89.244,30.468ZM85.356,27.12l-3.708-.072V35a1.6,1.6,0,0,0,.5,1.332,2.42,2.42,0,0,0,1.512.4,5.057,5.057,0,0,0,.99-.09,3.691,3.691,0,0,0,.7-.2Zm17.856-3.492-.18-2.7,10.224-1.44a4.361,4.361,0,0,0-1.188-2.826,4.025,4.025,0,0,0-3.06-1.134,4.368,4.368,0,0,0-3.348,1.44,5.95,5.95,0,0,0-1.368,4.1l.072,1.368a5.537,5.537,0,0,0,1.836,3.834,6.184,6.184,0,0,0,4.068,1.278,7.905,7.905,0,0,0,2.772-.468,8.726,8.726,0,0,0,2.016-1.008,2.015,2.015,0,0,1,.7.684,1.733,1.733,0,0,1,.27.936,1.855,1.855,0,0,1-.792,1.44,5.651,5.651,0,0,1-2.142,1.008,11.819,11.819,0,0,1-3.042.36,10.893,10.893,0,0,1-4.86-1.026,7.391,7.391,0,0,1-3.24-3.06,9.981,9.981,0,0,1-1.152-4.986,10.432,10.432,0,0,1,.63-3.762,7.786,7.786,0,0,1,1.746-2.754,7.391,7.391,0,0,1,2.628-1.692,9.024,9.024,0,0,1,3.24-.576,8.236,8.236,0,0,1,4.014.954,6.865,6.865,0,0,1,2.718,2.646,7.593,7.593,0,0,1,.972,3.852,1.75,1.75,0,0,1-.432,1.314,2.135,2.135,0,0,1-1.224.522Zm21.132-6.876v5.292h-3.708V16.68a2.483,2.483,0,0,1,.378-1.422,4.066,4.066,0,0,1,1.134-1.062,9.306,9.306,0,0,1,2.646-1.08,14.023,14.023,0,0,1,3.582-.432q3.132,0,3.132,1.764a2.383,2.383,0,0,1-.126.792,3.234,3.234,0,0,1-.306.648q-.36-.072-.918-.144a8.853,8.853,0,0,0-1.134-.072,10.909,10.909,0,0,0-2.682.306A7.63,7.63,0,0,0,124.344,16.752ZM120.636,20.5l3.708.324v9.108q-.252.072-.7.18a4.242,4.242,0,0,1-.99.108,2.421,2.421,0,0,1-1.512-.4,1.549,1.549,0,0,1-.5-1.3ZM134.424,8a2.038,2.038,0,0,1,.648-1.548,2.221,2.221,0,0,1,1.584-.612,2.19,2.19,0,0,1,1.62.612A2.1,2.1,0,0,1,138.888,8a2.114,2.114,0,0,1-.612,1.53,2.156,2.156,0,0,1-1.62.63,2.186,2.186,0,0,1-1.584-.63A2.054,2.054,0,0,1,134.424,8Zm.4,12.492h3.708v9.432q-.252.072-.7.18a4.242,4.242,0,0,1-.99.108,2.421,2.421,0,0,1-1.512-.4,1.549,1.549,0,0,1-.5-1.3Zm3.708,1.836H134.82V13.26q.252-.072.72-.162a5.338,5.338,0,0,1,1.008-.09,2.422,2.422,0,0,1,1.494.378,1.571,1.571,0,0,1,.486,1.314Zm6.7,1.3-.18-2.7,10.224-1.44a4.362,4.362,0,0,0-1.188-2.826,4.025,4.025,0,0,0-3.06-1.134,4.368,4.368,0,0,0-3.348,1.44,5.95,5.95,0,0,0-1.368,4.1l.072,1.368a5.537,5.537,0,0,0,1.836,3.834,6.184,6.184,0,0,0,4.068,1.278,7.905,7.905,0,0,0,2.772-.468,8.727,8.727,0,0,0,2.016-1.008,2.015,2.015,0,0,1,.7.684,1.733,1.733,0,0,1,.27.936,1.855,1.855,0,0,1-.792,1.44,5.651,5.651,0,0,1-2.142,1.008,11.819,11.819,0,0,1-3.042.36,10.893,10.893,0,0,1-4.86-1.026,7.391,7.391,0,0,1-3.24-3.06,9.981,9.981,0,0,1-1.152-4.986,10.432,10.432,0,0,1,.63-3.762,7.786,7.786,0,0,1,1.746-2.754,7.391,7.391,0,0,1,2.628-1.692,9.024,9.024,0,0,1,3.24-.576,8.236,8.236,0,0,1,4.014.954,6.865,6.865,0,0,1,2.718,2.646,7.593,7.593,0,0,1,.972,3.852,1.75,1.75,0,0,1-.432,1.314,2.135,2.135,0,0,1-1.224.522Zm32.544-4.68v3.564H174.06v-3.42a3.208,3.208,0,0,0-1.008-2.628,4.123,4.123,0,0,0-2.7-.828,7.394,7.394,0,0,0-2.268.324,9.869,9.869,0,0,0-1.728.72v5.832h-3.708v-5.9a2.422,2.422,0,0,1,.342-1.35,3.455,3.455,0,0,1,1.1-.99,11.98,11.98,0,0,1,2.628-1.116,12.216,12.216,0,0,1,3.636-.5,8.528,8.528,0,0,1,5.454,1.566A5.691,5.691,0,0,1,177.768,18.948Zm-15.12,1.692h3.708v9.288q-.252.072-.7.18a4.242,4.242,0,0,1-.99.108,2.421,2.421,0,0,1-1.512-.4,1.549,1.549,0,0,1-.5-1.3Zm11.412,0h3.708v9.288q-.252.072-.72.18a4.309,4.309,0,0,1-.972.108,2.408,2.408,0,0,1-1.53-.4,1.578,1.578,0,0,1-.486-1.3Zm16.92-4.968a5.217,5.217,0,0,0-3.816,1.53,5.929,5.929,0,0,0-1.548,4.41,5.939,5.939,0,0,0,1.494,4.356,5.2,5.2,0,0,0,3.87,1.512,6.578,6.578,0,0,0,2.376-.378,9.264,9.264,0,0,0,1.692-.846,2.61,2.61,0,0,1,.756.684,1.548,1.548,0,0,1,.288.936q0,1.116-1.476,1.854a8.542,8.542,0,0,1-3.816.738,10.57,10.57,0,0,1-4.644-.972,7.128,7.128,0,0,1-3.15-2.952,9.8,9.8,0,0,1-1.134-4.932,9.517,9.517,0,0,1,1.188-4.968,7.683,7.683,0,0,1,3.2-2.988,9.761,9.761,0,0,1,4.428-1.008,7.7,7.7,0,0,1,3.762.81q1.458.81,1.458,1.89a1.56,1.56,0,0,1-.27.9,2.284,2.284,0,0,1-.666.648,8.61,8.61,0,0,0-1.692-.864A6.45,6.45,0,0,0,190.98,15.672Zm10.62,7.956-.18-2.7,10.224-1.44a4.362,4.362,0,0,0-1.188-2.826,4.025,4.025,0,0,0-3.06-1.134,4.368,4.368,0,0,0-3.348,1.44,5.95,5.95,0,0,0-1.368,4.1l.072,1.368a5.537,5.537,0,0,0,1.836,3.834,6.184,6.184,0,0,0,4.068,1.278,7.905,7.905,0,0,0,2.772-.468,8.727,8.727,0,0,0,2.016-1.008,2.015,2.015,0,0,1,.7.684,1.733,1.733,0,0,1,.27.936,1.855,1.855,0,0,1-.792,1.44,5.651,5.651,0,0,1-2.142,1.008,11.819,11.819,0,0,1-3.042.36,10.893,10.893,0,0,1-4.86-1.026,7.391,7.391,0,0,1-3.24-3.06,9.981,9.981,0,0,1-1.152-4.986,10.432,10.432,0,0,1,.63-3.762,7.786,7.786,0,0,1,1.746-2.754,7.391,7.391,0,0,1,2.628-1.692,9.024,9.024,0,0,1,3.24-.576,8.236,8.236,0,0,1,4.014.954,6.865,6.865,0,0,1,2.718,2.646,7.593,7.593,0,0,1,.972,3.852,1.75,1.75,0,0,1-.432,1.314,2.135,2.135,0,0,1-1.224.522Z" transform="translate(325 341)" fill="#fff"/></g></svg>