<?xml version="1.0" encoding="utf-8"?><svg id="ELOGATE" xmlns="http://www.w3.org/2000/svg" viewBox="0 0 97.73 38"><defs><style>.cls-1{fill:#fff;}</style></defs><title>ELOGATE white white</title><path class="cls-1" d="M98.51,14.85H92v4.24h5.1V20H92v5.2h6.78V26H91V14h7.51Z" transform="translate(-1 -1)"/><path class="cls-1" d="M85.35,14.85H81V26H80V14.85H75.62V14h9.73Z" transform="translate(-1 -1)"/><polygon class="cls-1" points="65.89 14.71 71.83 25 72.92 25 65.89 12.82 58.85 25 59.95 25 65.89 14.71"/><path class="cls-1" d="M54.66,16.2l-.7.56a5,5,0,0,0-4.08-2.07A5.11,5.11,0,0,0,44.72,20a5.14,5.14,0,0,0,5.2,5.33A5,5,0,0,0,54.28,23V20.87H49.86V20h5.37v3.15A6.19,6.19,0,0,1,43.72,20a6.09,6.09,0,0,1,6.14-6.18A5.85,5.85,0,0,1,54.66,16.2Z" transform="translate(-1 -1)"/><path class="cls-1" d="M32.73,14.76A5.24,5.24,0,1,1,27.49,20a5.25,5.25,0,0,1,5.24-5.24m0-.94A6.18,6.18,0,1,0,38.91,20a6.18,6.18,0,0,0-6.18-6.18Z" transform="translate(-1 -1)"/><path class="cls-1" d="M16,25.15h5.9V26H15V14H16Z" transform="translate(-1 -1)"/><path class="cls-1" d="M8.51,14.85H2v4.24h5.1V20H2v5.2H8.73V26H1V14H8.51Z" transform="translate(-1 -1)"/><path class="cls-1" d="M49.86,39a18.87,18.87,0,0,1-13.43-5.57l2.64-2.64a15.25,15.25,0,0,0,21.59,0l2.64,2.64A18.88,18.88,0,0,1,49.86,39Z" transform="translate(-1 -1)"/><path class="cls-1" d="M60.66,9.21a15.25,15.25,0,0,0-21.59,0L36.43,6.57a19,19,0,0,1,26.87,0Z" transform="translate(-1 -1)"/></svg>
