<svg id="Ebene_1" data-name="Ebene 1" xmlns="http://www.w3.org/2000/svg" viewBox="0 0 426.93 226.54"><defs><style>.cls-1{fill:#020204;}</style></defs><path class="cls-1" d="M171,106H98.26v9h37.81a21,21,0,0,1,21,21v58.75a21,21,0,0,1-21,21H64.83a21,21,0,0,1-21-21l.13-130.94C43.94,15.79,15,5.38,0,0V194.81a30.05,30.05,0,0,0,30,30H171a30.06,30.06,0,0,0,30-30V136.06A30.05,30.05,0,0,0,171,106Z"/><path class="cls-1" d="M396.91,102.9H256a30.06,30.06,0,0,0-30,30l.12,63.55a30.06,30.06,0,0,0,30,30h8.74v0H404.57a29.88,29.88,0,0,0,21.49-9.1H406.48c-.18,0-77.24,0-139.73,0l-1.92,0H291a21,21,0,0,1-21.09-20.94l0-63.63a21,21,0,0,1,21-21H362a21,21,0,0,1,21,21v6.89a21,21,0,0,1-21,21H324.72v9h72.19a30,30,0,0,0,30-30v-6.89A30.05,30.05,0,0,0,396.91,102.9Z"/></svg>