<?xml version="1.0" encoding="utf-8"?>
<!-- Generator: Adobe Illustrator 15.1.0, SVG Export Plug-In . SVG Version: 6.00 Build 0)  -->
<!DOCTYPE svg PUBLIC "-//W3C//DTD SVG 1.1//EN" "http://www.w3.org/Graphics/SVG/1.1/DTD/svg11.dtd">
<svg version="1.1" id="Ebene_1" xmlns="http://www.w3.org/2000/svg" xmlns:xlink="http://www.w3.org/1999/xlink" x="0px" y="0px"
	 width="250px" height="30.075px" viewBox="0 0 250 30.075" enable-background="new 0 0 250 30.075" xml:space="preserve">
<path fill="#E30D18" d="M250,29.857V15.802c0-2.335-0.344-4.411-2.205-6.314c-1.166-1.168-2.854-1.86-4.93-1.86
	c-1.774,0-3.764,0.692-5.104,2.033V7.844h-6.53v21.972h6.703V16.667c0-2.552,1.816-3.027,2.683-3.027s2.68,0.475,2.68,3.027v13.148
	H250V29.857z M212.024,18.831c0,2.163-0.128,3.72-0.994,4.583c-0.389,0.392-0.993,0.607-1.816,0.607
	c-0.821,0-1.384-0.215-1.816-0.607c-0.866-0.863-0.995-2.42-0.995-4.583c0-2.163,0.129-3.721,0.995-4.586
	c0.389-0.389,0.995-0.604,1.816-0.604c0.823,0,1.383,0.215,1.816,0.604C211.896,15.11,212.024,16.667,212.024,18.831 M218.73,18.831
	c0-4.283-0.563-6.402-2.422-8.435c-1.3-1.385-3.504-2.812-7.053-2.812c-3.546,0-5.751,1.427-7.048,2.812
	c-1.86,1.989-2.423,4.108-2.423,8.435c0,4.323,0.563,6.402,2.423,8.432c1.297,1.385,3.502,2.813,7.048,2.813
	c3.549,0,5.753-1.428,7.053-2.813C218.125,25.275,218.73,23.198,218.73,18.831 M187.286,0.49h-6.706v5.104h6.706V0.49z
	 M187.286,8.709h-6.706v21.148h6.706V8.709z M168.254,29.857v-5.621h-2.12c-0.908,0-1.341-0.474-1.341-1.34v-8.997h3.461V8.752
	h-3.461V2.437h-6.704v6.315H156.1v5.147h1.989v9.471c0,3.03,1.947,6.487,6.832,6.487H168.254z M138.408,18.831
	c0,2.163-0.129,3.72-0.995,4.583c-0.389,0.392-0.995,0.607-1.815,0.607c-0.822,0-1.384-0.215-1.817-0.607
	c-0.863-0.863-0.993-2.42-0.993-4.583c0-2.163,0.13-3.721,0.993-4.586c0.391-0.389,0.995-0.604,1.817-0.604
	c0.82,0,1.385,0.215,1.815,0.604C138.279,15.11,138.408,16.667,138.408,18.831 M145.112,18.831c0-4.283-0.56-6.402-2.423-8.435
	c-1.295-1.385-3.5-2.812-7.048-2.812c-3.549,0-5.754,1.427-7.051,2.812c-1.86,1.989-2.422,4.108-2.422,8.435
	c0,4.323,0.562,6.402,2.422,8.432c1.297,1.385,3.502,2.813,7.051,2.813c3.548,0,5.753-1.428,7.048-2.813
	C144.553,25.275,145.112,23.198,145.112,18.831 M113.884,29.857V15.802c0-2.335-0.519-4.411-2.421-6.314
	c-1.167-1.168-3.202-1.86-5.277-1.86c-2.552,0-4.282,0.649-6.229,2.336c-1.427-1.644-3.201-2.336-5.363-2.336
	c-1.774,0-3.763,0.692-5.104,2.033V7.844h-6.532v21.972h6.705V16.667c0-2.552,1.816-3.027,2.682-3.027
	c0.864,0,2.681,0.475,2.681,3.027v13.148h6.704V16.667c0-2.552,1.817-3.027,2.683-3.027c0.864,0,2.682,0.475,2.682,3.027v13.148
	h6.79V29.857z"/>
<path fill="#010202" d="M71.54,27.263l-4.542-4.54c-0.864,0.865-1.6,1.298-2.681,1.298c-0.909,0-1.513-0.303-2.076-0.867
	c-0.779-0.82-1.125-2.247-1.125-4.323c0-2.079,0.346-3.504,1.125-4.326c0.563-0.562,1.167-0.864,2.076-0.864
	c1.125,0,1.86,0.432,2.681,1.297l4.542-4.542c-1.816-1.817-4.151-2.812-7.223-2.812c-3.806,0-9.905,1.644-9.905,11.247
	c0,9.601,6.099,11.245,9.905,11.245C67.344,30.075,69.724,29.083,71.54,27.263 M36.505,16.537h-6.531
	c0-0.519,0.087-1.124,0.389-1.73c0.39-0.952,1.298-1.73,2.898-1.73c1.601,0,2.509,0.778,2.898,1.73
	C36.418,15.413,36.505,16.019,36.505,16.537 M43.123,20.993v-2.986c0-5.752-3.502-10.423-9.905-10.423
	c-5.752,0-9.861,4.065-9.861,11.247c0,9.471,5.58,11.245,10.467,11.245c4.11,0,6.315-1.21,8.564-3.46l-4.022-4.021
	c-1.168,1.168-2.206,1.858-4.542,1.858c-2.509,0-3.893-1.643-3.893-3.417h13.192V20.993z M12.154,29.857v-5.621h-2.12
	c-0.907,0-1.34-0.474-1.34-1.34v-8.997h3.46V8.752h-3.46V2.437H1.99v6.315H0v5.147h1.99v9.471c0,3.03,1.946,6.487,6.834,6.487
	H12.154z"/>
</svg>
