<?xml version="1.0" encoding="UTF-8" standalone="no"?>
<!DOCTYPE svg PUBLIC "-//W3C//DTD SVG 1.1//EN" "http://www.w3.org/Graphics/SVG/1.1/DTD/svg11.dtd">
<svg width="100%" height="100%" viewBox="0 0 815 201" version="1.1" xmlns="http://www.w3.org/2000/svg" xmlns:xlink="http://www.w3.org/1999/xlink" xml:space="preserve" xmlns:serif="http://www.serif.com/" style="fill-rule:evenodd;clip-rule:evenodd;stroke-linejoin:round;stroke-miterlimit:2;">
    <g transform="matrix(4.16667,0,0,4.16667,0,-3.85834)">
        <g>
            <path d="M176.68,11.618C187.007,11.618 195.392,20.003 195.392,30.331C195.392,40.659 187.007,49.044 176.68,49.044C166.352,49.044 157.967,40.659 157.967,30.331C157.967,20.003 166.352,11.618 176.68,11.618ZM176.68,19.638C182.581,19.638 187.373,24.429 187.373,30.331C187.373,36.233 182.581,41.024 176.68,41.024C170.778,41.024 165.987,36.233 165.987,30.331C165.987,24.429 170.778,19.638 176.68,19.638Z" style="fill:rgb(77,77,79);"/>
            <path d="M113.612,0.926C116.563,0.926 118.959,3.321 118.959,6.272C118.959,9.223 116.563,11.618 113.612,11.618C110.661,11.618 108.266,9.223 108.266,6.272C108.266,3.321 110.661,0.926 113.612,0.926Z" style="fill:rgb(81,192,223);"/>
            <path d="M8.02,19.638L8.02,30.331C8.02,33.283 9.064,35.803 11.152,37.891C13.241,39.98 15.761,41.024 18.713,41.024L18.713,49.044C13.533,49.044 9.12,47.22 5.472,43.572C1.824,39.924 0,35.51 0,30.331L0,0.926L8.02,0.926L8.02,11.618L18.713,11.618L18.713,19.638L8.02,19.638Z" style="fill:rgb(77,77,79);fill-rule:nonzero;"/>
            <path d="M90.361,21.016C88.774,20.098 87.006,19.638 85.057,19.638C82.105,19.638 79.585,20.682 77.496,22.771C75.408,24.859 74.364,27.379 74.364,30.331C74.364,33.283 75.408,35.803 77.496,37.891C79.585,39.98 82.105,41.024 85.057,41.024C88.008,41.024 90.528,39.98 92.617,37.891C94.65,35.858 95.694,33.436 95.75,30.623L95.75,0.926L103.769,0.926L103.769,30.331C103.769,35.51 101.945,39.924 98.297,43.572C94.65,47.22 90.236,49.044 85.057,49.044C79.877,49.044 75.464,47.22 71.816,43.572C68.168,39.924 66.344,35.51 66.344,30.331C66.344,25.152 68.168,20.738 71.816,17.09C75.464,13.442 79.877,11.618 85.057,11.618C86.922,11.618 88.691,11.855 90.361,12.328L90.361,21.016Z" style="fill:rgb(77,77,79);fill-rule:nonzero;"/>
            <path d="M154.435,43.572C150.787,47.22 146.374,49.044 141.194,49.044C136.015,49.044 131.601,47.22 127.954,43.572C124.306,39.924 122.482,35.51 122.482,30.331C122.482,25.152 124.306,20.738 127.954,17.09C131.601,13.442 136.015,11.618 141.194,11.618C146.374,11.618 150.787,13.442 154.435,17.09L154.477,17.132L148.796,22.813L148.755,22.771C146.666,20.682 144.146,19.638 141.194,19.638C138.243,19.638 135.723,20.682 133.634,22.771C131.546,24.859 130.502,27.379 130.502,30.331C130.502,33.283 131.546,35.803 133.634,37.891C135.723,39.98 138.243,41.024 141.194,41.024C144.146,41.024 146.666,39.98 148.755,37.891L148.796,37.849L154.477,43.53L154.435,43.572Z" style="fill:rgb(77,77,79);"/>
            <path d="M61.339,32.015L39.762,32.015L39.762,25.423L52.229,25.427C51.731,24.475 51.073,23.59 50.254,22.771C48.165,20.682 45.645,19.638 42.693,19.638C39.742,19.638 37.222,20.682 35.133,22.771C33.045,24.859 32,27.379 32,30.331C32,33.283 33.045,35.803 35.133,37.891C37.222,39.98 39.742,41.024 42.693,41.024C45.645,41.024 48.165,39.98 50.254,37.891C50.267,37.878 50.28,37.865 50.293,37.851C50.306,37.838 55.987,43.546 55.973,43.532C55.96,43.519 55.947,43.559 55.934,43.572C52.286,47.22 47.873,49.044 42.693,49.044C37.514,49.044 33.1,47.22 29.452,43.572C25.805,39.924 23.98,35.51 23.98,30.331C23.98,25.152 25.805,20.738 29.452,17.09C33.1,13.442 37.514,11.618 42.693,11.618C47.873,11.618 52.286,13.442 55.934,17.09C59.582,20.738 61.406,25.152 61.406,30.331C61.406,30.907 61.384,31.458 61.339,32.015Z" style="fill:rgb(77,77,79);fill-rule:nonzero;"/>
            <path d="M90.403,30.331C90.403,31.807 89.881,33.067 88.837,34.111C87.793,35.155 86.532,35.677 85.057,35.677C83.581,35.677 82.321,35.155 81.277,34.111C80.232,33.067 79.71,31.807 79.71,30.331C79.71,28.855 80.232,27.595 81.277,26.551C82.321,25.507 83.581,24.985 85.057,24.985C86.532,24.985 87.793,25.507 88.837,26.551C89.881,27.595 90.403,28.855 90.403,30.331Z" style="fill:rgb(81,192,223);"/>
            <rect x="109.602" y="16.578" width="8.02" height="32.466" style="fill:rgb(77,77,79);"/>
        </g>
    </g>
</svg>
