<?xml version="1.0" encoding="utf-8"?>
<!-- Generator: Adobe Illustrator 25.2.1, SVG Export Plug-In . SVG Version: 6.00 Build 0)  -->
<svg version="1.1" id="Ebene_1" xmlns="http://www.w3.org/2000/svg" xmlns:xlink="http://www.w3.org/1999/xlink" x="0px" y="0px"
	 viewBox="0 0 375.9 377.3" style="enable-background:new 0 0 375.9 377.3;" xml:space="preserve">
<g>
	<g>
		<path d="M260,95.7l0,32.6c2.9-3.9,6.1-7.2,15.7-8.9c13.3-2.3,26.4,3.3,26.3,24l0,11.9c5-8.4,12.6-16.5,21.3-26.6
			c10.2-11.9,15-16.5,14.9-23.8l0-13.5c0.1-9.5-4.3-11.1-10.5-10.1s-10.2,4.2-10.3,13.7l0,20.2l-21.2,3.7l0-22.6
			c0-2.5,0.2-4.8,0.5-7L260,95.7z"/>
		<path d="M48.5,113.6l20.7,117.2l42.4-128.3l41.2-7.3l20.7,117.1L215.6,84l22.8-4v0l62-10.9l0,8.1c4-6.8,10.9-11.2,21.3-13.8
			C287.3,24.9,237.3,0.7,181.6,0.7C101.7,0.7,33.4,50.6,6.3,121L48.5,113.6z"/>
		<path d="M355.9,118.2c-4,7.9-11,15-20,25.8c-11,13-18.5,21.1-18.6,28.6l0,12.7l42.4-7.4l0,19l-64,11.2l0-5.5
			c-5.1,6.4-13.5,10.3-25.7,12.4l-0.4,0.1c-18.5,3.2-32-2.3-32-23l0-22.6l21.2-3.7l0,20.3c0.1,9.5,4.3,11.2,10.9,10
			c6.5-1.1,10.8-4.3,10.7-13.8l0-32.6c-0.1-9.5-4-11.2-9.3-10.3c-5.2,0.9-8.6,3.9-11.1,10.3l-21.6-2.2l0-9.9l-51.8,148.9l-41.2,7.3
			l-19.2-109.4L82.3,304.9l-42,7.4c34.5,39.4,85,64.2,141.4,64.2c103.8,0,187.9-84.1,187.9-187.9
			C369.6,163.7,364.7,139.9,355.9,118.2z"/>
	</g>
	<g>
		<path d="M342.7,70.7c0-2,0.5-3.9,1.5-5.7c1-1.8,2.4-3.1,4.1-4.1c1.8-1,3.7-1.5,5.7-1.5c2,0,4,0.5,5.7,1.5c1.8,1,3.1,2.4,4.1,4.1
			c1,1.8,1.5,3.6,1.5,5.7c0,2-0.5,3.9-1.4,5.6s-2.3,3.1-4.1,4.2s-3.7,1.6-5.8,1.6c-2.1,0-4-0.5-5.8-1.6c-1.8-1.1-3.1-2.4-4.1-4.2
			C343.2,74.6,342.7,72.8,342.7,70.7z M344.6,70.7c0,1.7,0.4,3.3,1.3,4.8c0.8,1.5,2,2.6,3.5,3.5c1.5,0.8,3,1.3,4.8,1.3
			c1.7,0,3.3-0.4,4.8-1.3s2.6-2,3.5-3.5s1.2-3.1,1.2-4.8c0-1.7-0.4-3.3-1.2-4.8c-0.8-1.5-2-2.6-3.5-3.4c-1.5-0.8-3.1-1.3-4.8-1.3
			c-1.7,0-3.3,0.4-4.8,1.2c-1.5,0.8-2.6,2-3.5,3.5C345,67.4,344.6,69,344.6,70.7z M351.7,71.9V77h-2.2V64.1h4.4c1.6,0,2.9,0.3,3.8,1
			c0.9,0.7,1.3,1.6,1.3,2.9c0,1.2-0.7,2.2-2,2.9c1.3,0.5,2,1.5,2,3.1v0.9c0,0.9,0.1,1.5,0.3,1.9V77h-2.3c-0.2-0.4-0.2-1-0.2-1.9
			c0-0.9,0-1.5,0-1.7c-0.2-1-0.9-1.5-2.1-1.5L351.7,71.9L351.7,71.9z M351.7,69.9h2.5c0.8,0,1.4-0.2,1.8-0.5s0.7-0.8,0.7-1.3
			c0-0.7-0.2-1.2-0.6-1.6c-0.4-0.3-1.2-0.5-2.2-0.5h-2.2L351.7,69.9L351.7,69.9z"/>
	</g>
</g>
</svg>
