<svg xmlns="http://www.w3.org/2000/svg" viewBox="0 0 40 40"><path d="m22.22,34.074l-12.142,3.045c4.362,2.479,9.66,3.352,14.925,2.032,3.124-.783,5.844-2.26,8.122-4.209h-.002c.72-.618,2.389-2.093,3.966-4.596l-14.87,3.728h0Z" fill="#26d07c"/><path d="m37.089,30.345s-17.687-1.373-17.746-1.378l-14.684,3.665,17.56,1.442,14.87-3.728h0Z" fill="#3a3a3a"/><path d="m19.343,28.967l20.323-5.102s.495-3.894.279-5.896l-19.926,5.005L1.564,27.594c.769,1.823,1.841,3.556,3.096,5.038l14.684-3.665h0Z" fill="#26d07c"/><path d="m39.945,17.969l-19.716-.876L.121,22.116l19.899.858,19.926-5.005Z" fill="#3a3a3a"/><path d="m20.23,17.093l18.335-4.597c-.777-1.871-1.836-3.564-3.094-5.067l-14.72,3.686L.372,16.22c-.246,1.247-.542,3.381-.251,5.897l20.109-5.023h0Z" fill="#26d07c"/><path d="m2.888,9.743l17.863,1.372,14.721-3.687-17.732-1.394-14.852,3.709Z" fill="#3a3a3a"/><path d="m17.739,6.034l12.334-3.09C25.702.426,20.377-.482,15.08.846c-3.195.8-6.009,2.324-8.314,4.341h-.002c-.696.585-2.232,1.918-3.877,4.556l14.852-3.709h0Z" fill="#26d07c"/></svg>
