<?xml version="1.0" encoding="UTF-8"?><svg id="b" xmlns="http://www.w3.org/2000/svg" viewBox="0 0 283.46 130.47"><g id="c"><g><g><path d="M22.77,122.31c-.29,5.47-3.73,8.17-10.36,8.17-4.1,0-6.8-1.16-8.58-3.65-1.37-1.91-1.91-4.23-1.91-8.42v-6.3c0-4.6,.62-7.01,2.32-8.96,1.87-2.16,4.35-3.11,8.17-3.11,6.38,0,9.66,2.74,9.95,8.38l-4.98,.37c-.37-2.94-1.95-4.35-4.89-4.35-3.81,0-5.14,2.12-5.14,8.04v5.56c0,5.97,1.33,8.04,5.22,8.04,3.03,0,4.73-1.41,5.14-4.35l5.06,.58Z" style="fill:#84bd00;"/><path d="M26.92,117.79c0-6.67,2.74-9.49,9.2-9.49s9.16,2.82,9.16,9.49v3.19c0,6.67-2.74,9.49-9.16,9.49s-9.2-2.82-9.2-9.49v-3.19Zm13.23,.33c0-4.06-1.16-5.72-4.02-5.72s-4.06,1.66-4.06,5.72v2.49c0,4.06,1.16,5.72,4.06,5.72s4.02-1.66,4.02-5.72v-2.49Z" style="fill:#84bd00;"/><path d="M50.76,108.75h3.9l.37,1.78c1.12-1.49,2.86-2.24,5.18-2.24,2.57,0,4.64,.99,5.8,2.74,1.2-1.87,3.07-2.74,5.89-2.74,3.65,0,5.89,1.37,6.88,4.1,.41,1.2,.58,2.86,.58,5.43v12.19h-5.14v-11.65c0-4.06-.91-5.68-3.23-5.68s-3.36,1.78-3.36,6.18v11.15h-5.14v-11.57c0-4.15-.87-5.76-3.19-5.76-2.49,0-3.4,1.74-3.4,6.3v11.03h-5.14v-21.27Z" style="fill:#84bd00;"/><path d="M85.38,108.75h3.9l.37,1.78c1.12-1.49,2.86-2.24,5.18-2.24,2.57,0,4.64,.99,5.8,2.74,1.2-1.87,3.07-2.74,5.89-2.74,3.65,0,5.89,1.37,6.88,4.1,.41,1.2,.58,2.86,.58,5.43v12.19h-5.14v-11.65c0-4.06-.91-5.68-3.23-5.68s-3.36,1.78-3.36,6.18v11.15h-5.14v-11.57c0-4.15-.87-5.76-3.19-5.76-2.49,0-3.4,1.74-3.4,6.3v11.03h-5.14v-21.27Z" style="fill:#84bd00;"/><path d="M124.28,108.75v11.57c0,4.15,.95,5.76,3.36,5.76,2.65,0,3.61-1.74,3.61-6.38v-10.94h5.14v21.27h-3.57l-.62-1.99c-1.16,1.74-2.74,2.45-5.56,2.45-3.61,0-5.93-1.37-6.88-4.1-.41-1.16-.62-2.86-.62-5.47v-12.15h5.14Z" style="fill:#84bd00;"/><path d="M141.78,108.75h3.86l.46,1.87c1.37-1.66,2.94-2.32,5.68-2.32,3.65,0,6.05,1.41,7.05,4.1,.46,1.2,.62,2.82,.62,5.43v12.19h-5.14v-11.61c0-4.1-.99-5.72-3.57-5.72-2.78,0-3.81,1.7-3.81,6.34v10.99h-5.14v-21.27Z" style="fill:#84bd00;"/><path d="M164.75,100.17h5.14v5.26h-5.14v-5.26Zm0,8.58h5.14v21.27h-5.14v-21.27Z" style="fill:#84bd00;"/><path d="M191.61,126.41c-1.7,2.78-4.31,4.06-8.08,4.06-6.01,0-8.83-3.32-8.83-10.32v-1.33c0-3.61,.54-5.85,1.82-7.55,1.45-1.95,3.81-2.98,6.84-2.98,3.77,0,6.3,1.33,7.88,4.1l-3.86,2.16c-1.04-1.62-1.99-2.16-3.61-2.16-2.7,0-3.94,1.87-3.94,5.97v2.28c0,3.77,1.37,5.68,4.06,5.68,1.74,0,2.86-.58,3.9-2.07l3.81,2.16Z" style="fill:#84bd00;"/><path d="M206.5,116.21c0-2.65-1.12-3.81-3.61-3.81-1.74,0-3.19,.71-4.31,2.12l-3.57-2.53c1.91-2.49,4.64-3.69,8.38-3.69s6.34,1.24,7.46,3.57c.58,1.2,.79,2.61,.79,5.26v12.89h-4.02l-.33-1.24c-1.37,1.24-2.9,1.7-5.8,1.7-5.27,0-7.25-1.82-7.25-6.59,0-5.1,1.95-6.72,7.96-6.72h4.31v-.95Zm-3.69,4.44c-2.65,0-3.69,.87-3.69,3.03s.91,2.86,3.69,2.86c1.66,0,2.7-.37,3.23-1.16,.37-.5,.46-1.04,.46-2.49v-2.24h-3.69Z" style="fill:#84bd00;"/><path d="M215.12,112.81v-4.06h2.4l.29-6.22h4.85v6.22h4.23v4.06h-4.23v8.83c0,3.23,.83,4.23,3.65,4.19h.58v4.19h-.75c-7.13,0-8.62-1.53-8.62-8.87v-8.33h-2.4Z" style="fill:#84bd00;"/><path d="M230.8,100.17h5.14v5.26h-5.14v-5.26Zm0,8.58h5.14v21.27h-5.14v-21.27Z" style="fill:#84bd00;"/><path d="M240.75,117.79c0-6.67,2.74-9.49,9.2-9.49s9.16,2.82,9.16,9.49v3.19c0,6.67-2.74,9.49-9.16,9.49s-9.2-2.82-9.2-9.49v-3.19Zm13.23,.33c0-4.06-1.16-5.72-4.02-5.72s-4.06,1.66-4.06,5.72v2.49c0,4.06,1.16,5.72,4.06,5.72s4.02-1.66,4.02-5.72v-2.49Z" style="fill:#84bd00;"/><path d="M263.88,108.75h3.86l.46,1.87c1.37-1.66,2.94-2.32,5.68-2.32,3.65,0,6.05,1.41,7.05,4.1,.46,1.2,.62,2.82,.62,5.43v12.19h-5.14v-11.61c0-4.1-1-5.72-3.57-5.72-2.78,0-3.81,1.7-3.81,6.34v10.99h-5.14v-21.27Z" style="fill:#84bd00;"/></g><g><path d="M276.98,65.48l4.36-16.87c1.33-5.35,1.82-7.94,2.04-10.67,.44-5.54-.78-9.91-3.62-12.98-3.59-3.88-9.87-5.85-18.67-5.85-9.66,0-15.93,1.94-21.64,6.68-5.14,4.4-7.55,9-10.31,19.68l-4.26,16.86c-1.1,4.07-1.82,7.9-2.05,10.77-.46,5.84,.91,10.13,4.31,13.51,3.75,3.76,8.96,5.22,18.6,5.22,9,0,15.46-2.06,20.93-6.68,5.17-4.43,7.58-9.03,10.31-19.69Zm-9.5-16.98l-3.65,14.34c-3.45,13.51-7.72,18.08-16.9,18.08-3.65,0-6.22-.86-7.85-2.63-1.55-1.68-2.18-4.07-1.92-7.32,.19-2.38,.81-5.73,1.59-8.54l3.65-14.32c3.45-13.52,7.74-18.08,17-18.08,3.66,0,6.23,.85,7.85,2.6,1.55,1.68,2.18,4.12,1.92,7.45-.16,2.07-.31,2.68-1.47,7.51l-.22,.91Z" style="fill:#53575b;"/><path d="M223.12,35.52c.39-4.97-1.28-9.39-4.46-11.83-3.4-2.53-7.76-3.47-16.09-3.47h-24.93l-17.99,70.51h13.9l7.31-28.79h8.84l6.22,28.79h15.48l-7.92-29.92,.95-.08c4.74-.38,8.27-2.11,11.45-5.6,3.73-4.18,6.64-12.07,7.23-19.62Zm-14.58,2.95c-.32,4.07-2.03,8.16-4.35,10.41-2.04,2-4.78,2.85-9.15,2.85h-11.84l5.36-20.79h11.12c3.87,0,6.19,.64,7.52,2.09,1.11,1.2,1.53,2.93,1.33,5.44Z" style="fill:#53575b;"/><path d="M165.98,36.53c.42-5.39-1.51-10.18-5.17-12.82-3.42-2.58-7.79-3.49-16.72-3.49h-22.2l-17.99,70.51h13.9l6.42-25.15h11.53c10.91,0,16.83-1.96,21.82-7.22,4.43-4.64,7.73-13.21,8.41-21.83Zm-14.55,2.55c-.36,4.6-2.28,9.57-4.77,12.38-2.17,2.32-4.98,3.3-9.42,3.3h-10.52l6.1-23.82h10.11c3.56,0,5.74,.64,7.07,2.09,1.2,1.3,1.66,3.22,1.44,6.05Z" style="fill:#53575b;"/></g><g><polygon points="113.81 0 106.98 0 83.85 90.73 90.68 90.73 113.81 0" style="fill:#84bd00;"/><polygon points="0 20.22 15.21 20.22 25.58 70.49 38.41 20.22 50.17 20.22 63.01 70.49 73.48 20.22 88.69 20.22 70.61 90.73 56.98 90.73 44.34 44.22 31.7 90.73 17.97 90.73 0 20.22" style="fill:#53575b;"/></g></g></g></svg>